<svg width="85" height="84" viewBox="0 0 85 84" fill="none" xmlns="http://www.w3.org/2000/svg">
<path d="M-3.17798e-06 72.7038C-3.04604e-06 69.6853 1.20161 66.8464 3.37772 64.7119C5.55382 62.5773 8.44798 61.3986 11.5253 61.3986C14.6026 61.3986 17.4968 62.5701 19.6655 64.7047C21.8416 66.8392 23.0433 69.6781 23.0433 72.7038C23.0433 75.7296 21.849 78.5612 19.6729 80.6958C15.1814 85.1014 7.86914 85.1014 3.3704 80.6958C1.19429 78.5612 -3.31024e-06 75.7295 -3.1783e-06 72.711L-3.17798e-06 72.7038Z" fill="white"/>
<path d="M61.4292 11.3052C61.4292 8.28662 62.6308 5.44775 64.8069 3.30602C66.983 1.17867 69.8772 -6.6104e-07 72.9545 -5.26526e-07C76.0318 -3.92012e-07 78.926 1.17148 81.0947 3.30603C83.2782 5.44057 84.4725 8.28662 84.4725 11.3052C84.4725 14.3237 83.2782 17.1626 81.1021 19.2899C78.926 21.4245 76.0318 22.6032 72.9545 22.6032C69.8772 22.6032 66.983 21.4245 64.8069 19.2899C62.6308 17.1554 61.4365 14.3237 61.4365 11.3052L61.4292 11.3052Z" fill="white"/>
<path d="M61.7736 72.1935C61.7736 69.175 62.9752 66.3361 65.1513 64.2016C69.6427 59.7959 76.955 59.7959 81.4391 64.2016C83.6152 66.3361 84.8168 69.175 84.8168 72.2007C84.8168 75.2264 83.6152 78.0581 81.4391 80.1927C76.9477 84.5983 69.6354 84.5983 65.1366 80.1927C62.9678 78.0581 61.7662 75.2193 61.7662 72.2079L61.7736 72.1935Z" fill="white"/>
<path d="M7.12235e-06 11.5998C7.25429e-06 8.58129 1.20163 5.74242 3.37773 3.60069C5.55384 1.46615 8.44798 0.294664 11.5253 0.294664C14.6026 0.294664 17.4968 1.47333 19.6729 3.60788C20.1345 4.05347 20.5521 4.55656 20.9917 5.19621C21.1309 5.39026 21.2408 5.56993 21.3508 5.74961C21.5925 6.16645 21.8197 6.5833 22.0029 6.9714C22.0981 7.17982 22.2007 7.40262 22.2886 7.6326C22.4425 8.04226 22.5817 8.49505 22.7062 9.01251C22.7355 9.11313 22.7575 9.20656 22.7868 9.29999C22.8015 9.35749 22.8235 9.41498 22.8381 9.47248L23.014 11.9879C22.9993 12.3042 22.9554 12.6491 22.9114 13.0157L22.8894 13.1594C22.8821 13.2457 22.8674 13.3607 22.8601 13.4756L22.8601 13.5763L22.8308 13.6913L22.8308 13.7919C22.8308 13.9787 22.8235 14.1584 22.8235 14.3381C22.8235 18.6719 24.7065 22.9553 27.989 26.0817C31.2568 29.1936 35.653 30.9113 40.0491 30.7892L40.181 30.7892L40.3202 30.7604C40.4448 30.7388 40.5693 30.7317 40.6939 30.7245C40.8404 30.7173 40.987 30.7029 41.1335 30.6814L41.39 30.6526C41.6098 30.631 41.8296 30.6023 42.0494 30.5879L44.6212 30.782C44.6871 30.7963 44.7457 30.8179 44.8043 30.8323L44.9655 30.8754C45.4564 30.9904 45.94 31.1126 46.4163 31.2994C46.6874 31.3929 46.8852 31.4791 47.0903 31.5797C47.5373 31.781 47.9476 31.9894 48.3652 32.2337C48.5484 32.3416 48.7316 32.4422 48.9074 32.5644C49.5888 33.0243 50.1017 33.434 50.5413 33.8652C52.7174 35.9997 53.9117 38.8386 53.9117 41.8643C53.9117 44.8901 52.7174 47.7218 50.5413 49.8635C46.0499 54.2619 38.7376 54.2619 34.2462 49.8563C33.7919 49.4107 33.3743 48.9076 32.9273 48.2608C32.7955 48.0739 32.6855 47.8942 32.583 47.7146C32.3338 47.3049 32.114 46.9024 31.9235 46.4928C31.821 46.27 31.7184 46.0544 31.6378 45.8388C31.4766 45.4075 31.3374 44.9476 31.2202 44.466L31.1469 44.1929C31.1322 44.1283 31.1103 44.0708 31.0956 44.0133L30.9124 41.4762C30.9271 41.1816 30.9637 40.8654 31.0077 40.5347L31.037 40.312C31.0516 40.2401 31.059 40.1179 31.0663 39.9957L31.0663 39.9095L31.1029 39.7801L31.1029 39.6795C31.1029 39.4926 31.1103 39.313 31.1103 39.1261C31.1103 34.7923 29.2272 30.5089 25.9521 27.3825C22.6843 24.2633 18.2881 22.5528 13.8846 22.675L13.7527 22.675L13.6208 22.7038C13.4963 22.7253 13.3717 22.7325 13.2471 22.7397C13.1006 22.7469 12.9541 22.7613 12.8075 22.7828C12.7196 22.7828 12.5584 22.8044 12.4045 22.8259C12.2287 22.8475 12.0528 22.8691 11.877 22.8691L11.8111 22.8691L9.34187 22.6894C9.29059 22.675 9.00484 22.596 8.91691 22.5744C8.38204 22.4522 7.91312 22.3157 7.48815 22.1576C7.25368 22.0713 7.04854 21.9851 6.83606 21.8845C6.39644 21.6904 5.9788 21.4748 5.55384 21.2304C5.37799 21.1226 5.17284 21.0004 4.97501 20.8711C4.35221 20.4542 3.83201 20.0374 3.37041 19.5846C1.1943 17.4573 6.9904e-06 14.6184 7.12235e-06 11.5998Z" fill="white"/>
<path d="M5.78814e-06 42.1231C5.92008e-06 39.1045 1.20163 36.2585 3.37773 34.1239C5.55384 31.9894 8.44798 30.8179 11.5253 30.8107C14.6026 30.8107 17.4894 31.9822 19.6656 34.1167C20.1125 34.5552 20.5228 35.0439 20.9991 35.7194C21.1163 35.8847 21.2262 36.0644 21.3361 36.2585C21.5925 36.6753 21.805 37.0706 21.9955 37.4875C22.0981 37.7102 22.2007 37.9259 22.2813 38.1415C22.4351 38.5583 22.5744 39.0183 22.6843 39.4998C22.6843 39.4998 22.8015 39.8951 22.8161 39.9454L23.0066 42.504C22.992 42.8058 22.948 43.1293 22.9041 43.4742L22.8821 43.6611C22.8674 43.7833 22.8601 43.8911 22.8601 43.9989C22.8601 44.042 22.8601 44.0851 22.8601 44.1211L22.8601 44.2001L22.8381 44.3079C22.8381 44.4948 22.8308 44.6816 22.8308 44.8685C22.8308 49.1951 24.7138 53.4714 27.989 56.5905C31.2568 59.7025 35.653 61.4202 40.0491 61.298L40.584 61.2836L40.6426 61.2333C40.6426 61.2333 40.6792 61.2333 40.7012 61.2333C40.8258 61.2333 40.9503 61.219 41.0822 61.2046L41.4486 61.1615C41.6537 61.1399 41.8516 61.1112 42.0567 61.104L44.5479 61.2765C44.6065 61.2908 44.9142 61.3771 45.0095 61.3986C45.603 61.5424 46.0426 61.6718 46.4309 61.8155C46.6654 61.8945 46.8779 61.9952 47.0977 62.0958C47.5006 62.2755 47.911 62.4911 48.3579 62.7498L48.4385 62.8001C48.5924 62.8864 48.7389 62.9726 48.8854 63.0732C49.5742 63.5332 50.0871 63.95 50.534 64.3813C52.7101 66.5158 53.9117 69.3619 53.9117 72.3804C53.9117 75.3989 52.7174 78.2378 50.5413 80.3724C46.0499 84.778 38.7376 84.778 34.2389 80.3724C33.8066 79.9483 33.3889 79.438 32.92 78.7697C32.8321 78.6403 32.7588 78.5181 32.6782 78.3959L32.5537 78.1947C32.3265 77.8138 32.1067 77.4041 31.9162 77.0016C31.8136 76.7789 31.7111 76.5632 31.6305 76.3404C31.4766 75.9452 31.352 75.5067 31.2128 74.9605C31.1835 74.8527 31.1542 74.7593 31.1322 74.6731C31.1176 74.6084 31.0956 74.5509 31.0809 74.4934L30.9051 71.9779C30.9198 71.6114 30.9784 71.2161 31.0297 70.828C31.0443 70.6986 31.0516 70.598 31.059 70.4974C31.059 70.4615 31.059 70.4183 31.059 70.3824L31.0809 70.1668C31.0883 69.9799 31.0883 69.7931 31.0883 69.6062C31.0883 65.2724 29.2052 61.0034 25.9301 57.877C22.6623 54.765 18.2661 53.0473 13.8626 53.1767L13.7307 53.1767L13.6062 53.2054C13.4743 53.227 13.3424 53.2342 13.2105 53.2414C13.0713 53.2486 12.9394 53.2629 12.8148 53.2773C12.7049 53.2845 12.5657 53.2989 12.4338 53.3133C12.236 53.3348 12.0455 53.3564 11.8477 53.3636L9.31989 53.1767C9.26127 53.1623 8.92424 53.0689 8.92424 53.0689C8.38937 52.9467 7.92045 52.8102 7.48083 52.6521C7.27567 52.5802 7.07051 52.4867 6.86536 52.3933L6.7921 52.3646C6.38179 52.1777 5.97147 51.9693 5.57582 51.7321C5.37799 51.6171 5.18749 51.5021 5.00432 51.3799C4.35222 50.9343 3.82468 50.5175 3.3704 50.0719C1.20163 47.9517 0.00732988 45.1129 0.00733001 42.1015L5.78814e-06 42.1231Z" fill="white"/>
<path d="M31.1029 11.607C31.1029 8.58848 32.2972 5.74961 34.4733 3.61506C36.6494 1.48052 39.5436 0.301853 42.6282 0.301853C45.7055 0.301853 48.5924 1.47334 50.7685 3.60788C51.2154 4.04629 51.633 4.55656 52.0946 5.21058C52.2119 5.38307 52.3291 5.57712 52.4463 5.76398C52.6808 6.15208 52.9006 6.55455 53.0984 6.97859C53.201 7.1942 53.3036 7.417 53.3842 7.64698C53.5381 8.06383 53.6773 8.5238 53.7872 8.99814L53.8678 9.28562C53.8824 9.33593 53.9044 9.38624 53.9117 9.44373L54.1022 12.0023C54.0876 12.3329 54.0363 12.6923 53.985 13.0732L53.985 13.1522C53.963 13.2816 53.9557 13.3822 53.9484 13.49C53.9484 13.526 53.9484 13.5619 53.9484 13.5978L53.9264 13.7056L53.9264 13.8062C53.9191 13.9931 53.9117 14.18 53.9117 14.3668C53.9117 18.6934 55.7874 22.9697 59.0699 26.0889C62.3377 29.2008 66.7339 30.9185 71.1374 30.7892L71.262 30.7892L71.3865 30.7604C71.5257 30.7317 71.6649 30.7317 71.8115 30.7245C71.9287 30.7245 72.0459 30.7101 72.1632 30.6957L72.5149 30.6598C72.7273 30.631 72.9398 30.6095 73.1523 30.6023L75.5702 30.7748L75.6288 30.7892L75.6801 30.7892C75.7387 30.8035 76.0538 30.897 76.0538 30.897C76.6766 31.0407 77.1235 31.1701 77.5192 31.3138C77.739 31.3929 77.9515 31.4935 78.1786 31.5941C78.5889 31.781 79.0139 31.9966 79.4388 32.2409L79.5048 32.2769C79.6733 32.3775 79.8345 32.4709 80.003 32.5787C80.6624 33.0243 81.1827 33.4412 81.6223 33.8652C83.7984 35.9997 85 38.8386 85 41.8643C85 44.8901 83.8057 47.7218 81.6296 49.8563C77.1382 54.2619 69.8259 54.2548 65.3345 49.8563C64.8875 49.4179 64.4552 48.9004 64.0156 48.268C63.891 48.0955 63.8031 47.9446 63.7079 47.7936L63.6566 47.7074C63.4075 47.2905 63.1877 46.8809 63.0045 46.5C62.8946 46.27 62.7993 46.0616 62.7187 45.8388C62.5575 45.4147 62.4257 44.9619 62.3011 44.4589C62.2718 44.3511 62.2425 44.2576 62.2205 44.157C62.2058 44.0995 62.1839 44.042 62.1692 43.9773L61.9934 41.4691C62.008 41.1528 62.052 40.815 62.0959 40.4557L62.1179 40.3048C62.1326 40.1898 62.1399 40.082 62.1472 39.9813C62.1472 39.9382 62.1472 39.8951 62.1546 39.8592L62.1546 39.7729L62.1765 39.6651C62.1765 39.4783 62.1912 39.2914 62.1912 39.1045C62.1912 34.778 60.3082 30.5017 57.033 27.3825C53.7652 24.2705 49.3617 22.5528 44.9655 22.675L44.8336 22.675L44.7091 22.7038C44.5772 22.7325 44.4453 22.7325 44.3134 22.7469C44.1815 22.7541 44.0423 22.7685 43.9104 22.7828C43.8005 22.79 43.6686 22.8116 43.5294 22.8259C43.3389 22.8475 43.1484 22.8691 42.9579 22.8763L40.4448 22.6966C40.3788 22.6822 40.3129 22.6606 40.247 22.6391L40.0198 22.5744C39.4556 22.4522 38.9867 22.3157 38.5764 22.1647C38.3566 22.0857 38.1368 21.9779 37.9023 21.8773C37.492 21.6904 37.0817 21.482 36.6641 21.2376C36.4663 21.1226 36.2758 21.0148 36.0999 20.8926C35.4112 20.4255 34.9129 20.0302 34.4733 19.5918C32.2972 17.4573 31.1029 14.6256 31.1029 11.607Z" fill="white"/>
</svg>
