<svg width="72" height="84" viewBox="0 0 72 84" fill="none" xmlns="http://www.w3.org/2000/svg">
<path fill-rule="evenodd" clip-rule="evenodd" d="M66.7493 59.9408C56.4957 65.9217 46.2583 71.9013 36.0047 77.8809L5.24257 59.9422V24.0537L35.9993 6.11227C42.6744 10.0056 49.3413 13.9004 56.0123 17.7924L52.6883 19.7308L36.0007 9.99469L8.56385 26.0004V57.99L35.9993 73.9944L66.7493 56.057V59.9394V59.9408ZM24.913 42.0595L61.263 20.8553L64.1348 22.5298L24.913 45.4084V51.5207L71.9986 24.0537V20.9921L35.9993 0L0 20.999V62.9969C12.0029 69.9984 23.991 76.9985 35.9939 84L72 63.0024L71.9959 37.7065L66.7547 40.7626C66.7547 43.8201 66.7493 46.8817 66.7493 49.942L63.4199 51.8832V42.7066L58.18 45.7627V54.9393L35.9993 67.878L13.8254 54.9434V29.0552L35.9993 16.1193L47.439 22.7938L24.913 35.9336V42.0595Z" fill="white"/>
</svg>
