<svg width="84" height="84" viewBox="0 0 84 84" fill="none" xmlns="http://www.w3.org/2000/svg">
<path d="M72.7038 84C69.6853 84 66.8464 82.8125 64.7119 80.662C62.5773 78.5115 61.3986 75.6514 61.3986 72.6103C61.3986 69.5692 62.5701 66.7091 64.7047 64.5658C66.8392 62.4153 69.6781 61.2278 72.7038 61.2278C75.7296 61.2278 78.5612 62.4081 80.6958 64.5586C85.1014 68.9972 85.1014 76.2234 80.6958 80.6693C78.5612 82.8198 75.7295 84 72.711 84H72.7038Z" fill="white"/>
<path d="M11.3052 23.2935C8.28662 23.2935 5.44776 22.106 3.30603 19.9555C1.17867 17.805 0 14.9449 0 11.9038C0 8.86269 1.17148 6.00259 3.30603 3.85932C5.44057 1.70158 8.28662 0.521334 11.3052 0.521334C14.3237 0.521334 17.1626 1.70158 19.2899 3.85208C21.4245 6.00259 22.6032 8.86269 22.6032 11.9038C22.6032 14.9449 21.4245 17.805 19.2899 19.9555C17.1554 22.106 14.3237 23.2863 11.3052 23.2863V23.2935Z" fill="white"/>
<path d="M72.1935 22.9532C69.175 22.9532 66.3361 21.7657 64.2016 19.6152C59.7959 15.1766 59.7959 7.95035 64.2016 3.51901C66.3361 1.3685 69.175 0.181019 72.2007 0.181019C75.2264 0.181019 78.0581 1.3685 80.1927 3.51901C84.5983 7.95759 84.5983 15.1839 80.1927 19.6297C78.0581 21.773 75.2193 22.9604 72.2079 22.9604L72.1935 22.9532Z" fill="white"/>
<path d="M11.5998 84C8.58129 84 5.74242 82.8125 3.60069 80.662C1.46615 78.5115 0.294668 75.6514 0.294668 72.6103C0.294668 69.5692 1.47334 66.7091 3.60788 64.5586C4.05347 64.1024 4.55657 63.6897 5.19621 63.2552C5.39026 63.1177 5.56993 63.009 5.74961 62.9004C6.16646 62.6615 6.5833 62.437 6.9714 62.256C7.17983 62.1619 7.40262 62.0605 7.63261 61.9736C8.04227 61.8216 8.49505 61.684 9.01251 61.5609C9.11313 61.5319 9.20656 61.5102 9.29999 61.4812C9.35749 61.4668 9.41499 61.445 9.47248 61.4306L11.9879 61.2568C12.3042 61.2713 12.6491 61.3147 13.0157 61.3582L13.1594 61.3799C13.2457 61.3871 13.3607 61.4016 13.4756 61.4088H13.5763L13.6913 61.4378H13.7919C13.9787 61.4378 14.1584 61.445 14.3381 61.445C18.6719 61.445 22.9553 59.5842 26.0817 56.3403C29.1936 53.1109 30.9113 48.7665 30.7892 44.422V44.2917L30.7604 44.1541C30.7389 44.031 30.7317 43.9079 30.7245 43.7848C30.7173 43.64 30.7029 43.4952 30.6814 43.3504L30.6526 43.097C30.631 42.8797 30.6023 42.6625 30.5879 42.4453L30.782 39.9038C30.7964 39.8386 30.8179 39.7807 30.8323 39.7228L30.8754 39.5635C30.9904 39.0784 31.1126 38.6005 31.2994 38.1298C31.3929 37.8619 31.4791 37.6664 31.5797 37.4637C31.781 37.022 31.9894 36.6165 32.2337 36.2038C32.3416 36.0228 32.4422 35.8417 32.5644 35.668C33.0243 34.9946 33.434 34.4877 33.8652 34.0533C35.9997 31.9028 38.8386 30.7225 41.8643 30.7225C44.8901 30.7225 47.7218 31.9028 49.8635 34.0533C54.2619 38.4919 54.2619 45.7181 49.8563 50.1567C49.4107 50.6056 48.9076 51.0184 48.2608 51.46C48.0739 51.5904 47.8942 51.699 47.7146 51.8004C47.3049 52.0465 46.9024 52.2638 46.4928 52.452C46.27 52.5534 46.0544 52.6548 45.8388 52.7344C45.4075 52.8937 44.9476 53.0313 44.466 53.1471L44.1929 53.2195C44.1283 53.234 44.0708 53.2557 44.0133 53.2702L41.4762 53.4512C41.1816 53.4368 40.8654 53.4006 40.5348 53.3571L40.312 53.3282C40.2401 53.3137 40.1179 53.3064 39.9957 53.2992H39.9095L39.7801 53.263H39.6795C39.4926 53.263 39.313 53.2557 39.1261 53.2557C34.7923 53.2557 30.5089 55.1166 27.3825 58.3532C24.2634 61.5826 22.5528 65.9271 22.675 70.2788V70.4091L22.7038 70.5394C22.7253 70.6625 22.7325 70.7856 22.7397 70.9087C22.7469 71.0535 22.7613 71.1983 22.7828 71.3432C22.7828 71.43 22.8044 71.5893 22.826 71.7414C22.8475 71.9152 22.8691 72.089 22.8691 72.2627V72.3279L22.6894 74.768C22.675 74.8187 22.596 75.1011 22.5744 75.188C22.4522 75.7166 22.3157 76.18 22.1576 76.5999C22.0713 76.8316 21.9851 77.0344 21.8845 77.2444C21.6904 77.6788 21.4748 78.0915 21.2304 78.5115C21.1226 78.6853 21.0005 78.888 20.8711 79.0835C20.4542 79.699 20.0374 80.2131 19.5846 80.6692C17.4573 82.8197 14.6184 84 11.5998 84Z" fill="white"/>
<path d="M42.1231 84C39.1045 84 36.2585 82.8125 34.1239 80.662C31.9894 78.5115 30.8179 75.6514 30.8107 72.6103C30.8107 69.5692 31.9822 66.7163 34.1167 64.5658C34.5552 64.1241 35.0439 63.7186 35.7194 63.248C35.8848 63.1321 36.0644 63.0235 36.2585 62.9149C36.6753 62.6615 37.0706 62.4515 37.4875 62.2632C37.7103 62.1619 37.9259 62.0605 38.1415 61.9809C38.5583 61.8288 39.0183 61.6912 39.4998 61.5826C39.4998 61.5826 39.8951 61.4668 39.9454 61.4523L42.504 61.264C42.8058 61.2785 43.1293 61.322 43.4742 61.3654L43.6611 61.3871C43.7833 61.4016 43.8911 61.4088 43.9989 61.4088C44.042 61.4088 44.0851 61.4088 44.1211 61.4088H44.2001L44.3079 61.4306C44.4948 61.4306 44.6817 61.4378 44.8685 61.4378C49.1951 61.4378 53.4714 59.5769 56.5905 56.3403C59.7025 53.1109 61.4202 48.7665 61.298 44.422L61.2836 43.8935L61.2333 43.8355C61.2333 43.8355 61.2333 43.7993 61.2333 43.7776C61.2333 43.6545 61.219 43.5314 61.2046 43.4011L61.1615 43.039C61.1399 42.8363 61.1112 42.6408 61.104 42.4381L61.2765 39.9762C61.2908 39.9183 61.3771 39.6142 61.3986 39.52C61.5424 38.9335 61.6718 38.4991 61.8155 38.1153C61.8945 37.8836 61.9952 37.6736 62.0958 37.4564C62.2755 37.0582 62.4911 36.6527 62.7498 36.211L62.8001 36.1314C62.8864 35.9793 62.9726 35.8345 63.0732 35.6897C63.5332 35.009 63.95 34.5022 64.3813 34.0605C66.5158 31.91 69.3619 30.7225 72.3804 30.7225C75.3989 30.7225 78.2378 31.9028 80.3724 34.0533C84.778 38.4919 84.778 45.7181 80.3724 50.1639C79.9483 50.5912 79.438 51.0039 78.7697 51.4673C78.6403 51.5542 78.5181 51.6266 78.3959 51.7062L78.1947 51.8293C77.8138 52.0538 77.4041 52.271 77.0016 52.4593C76.7789 52.5606 76.5632 52.662 76.3404 52.7417C75.9452 52.8937 75.5068 53.0168 74.9605 53.1544C74.8527 53.1833 74.7593 53.2123 74.6731 53.234C74.6084 53.2485 74.5509 53.2702 74.4934 53.2847L71.9779 53.4585C71.6114 53.444 71.2161 53.3861 70.828 53.3354C70.6986 53.3209 70.598 53.3137 70.4974 53.3064C70.4615 53.3064 70.4183 53.3064 70.3824 53.3064L70.1668 53.2847C69.9799 53.2775 69.7931 53.2775 69.6062 53.2775C65.2724 53.2775 61.0034 55.1383 57.877 58.375C54.765 61.6043 53.0473 65.9488 53.1767 70.3005V70.4308L53.2054 70.5539C53.227 70.6842 53.2342 70.8146 53.2414 70.9449C53.2486 71.0825 53.2629 71.2128 53.2773 71.3359C53.2845 71.4445 53.2989 71.5821 53.3133 71.7124C53.3348 71.9079 53.3564 72.0962 53.3636 72.2917L53.1767 74.7898C53.1623 74.8477 53.0689 75.1808 53.0689 75.1808C52.9467 75.7093 52.8102 76.1727 52.6521 76.6072C52.5802 76.8099 52.4867 77.0127 52.3933 77.2154L52.3646 77.2878C52.1777 77.6933 51.9693 78.0988 51.7321 78.4898C51.6171 78.6853 51.5021 78.8735 51.3799 79.0546C50.9344 79.699 50.5175 80.2203 50.0719 80.6692C47.9517 82.8125 45.1129 83.9928 42.1015 83.9928L42.1231 84Z" fill="white"/>
<path d="M11.607 53.263C8.58848 53.263 5.74961 52.0828 3.61507 49.9322C1.48052 47.7817 0.301854 44.9216 0.301854 41.8733C0.301854 38.8322 1.47334 35.9793 3.60788 33.8288C4.04629 33.3871 4.55657 32.9744 5.21058 32.5182C5.38307 32.4024 5.57712 32.2865 5.76398 32.1707C6.15208 31.939 6.55456 31.7218 6.97859 31.5262C7.1942 31.4249 7.417 31.3235 7.64698 31.2439C8.06383 31.0918 8.5238 30.9542 8.99814 30.8456L9.28562 30.766C9.33593 30.7515 9.38624 30.7298 9.44374 30.7225L12.0023 30.5343C12.3329 30.5487 12.6923 30.5994 13.0732 30.6501H13.1522C13.2816 30.6718 13.3822 30.6791 13.49 30.6863C13.526 30.6863 13.5619 30.6863 13.5978 30.6863L13.7056 30.708H13.8062C13.9931 30.7153 14.18 30.7225 14.3668 30.7225C18.6934 30.7225 22.9697 28.8689 26.0889 25.625C29.2008 22.3957 30.9185 18.0512 30.7892 13.6995V13.5764L30.7604 13.4533C30.7317 13.3157 30.7317 13.1782 30.7245 13.0334C30.7245 12.9175 30.7101 12.8017 30.6957 12.6858L30.6598 12.3382C30.631 12.1283 30.6095 11.9183 30.6023 11.7083L30.7748 9.31885L30.7892 9.26093V9.21024C30.8035 9.15231 30.897 8.84096 30.897 8.84096C31.0407 8.2255 31.1701 7.78381 31.3138 7.39281C31.3929 7.17559 31.4935 6.96561 31.5941 6.74114C31.781 6.33566 31.9966 5.9157 32.2409 5.49573L32.2769 5.43057C32.3775 5.26403 32.4709 5.10473 32.5787 4.93819C33.0243 4.28653 33.4412 3.77243 33.8652 3.33799C35.9997 1.18748 38.8386 0 41.8643 0C44.8901 0 47.7218 1.18024 49.8563 3.33075C54.2619 7.76933 54.2548 14.9956 49.8563 19.4342C49.4179 19.8759 48.9004 20.3031 48.268 20.7375C48.0955 20.8606 47.9446 20.9475 47.7936 21.0416L47.7074 21.0923C47.2905 21.3385 46.8809 21.5557 46.5 21.7367C46.27 21.8454 46.0616 21.9395 45.8388 22.0191C45.4147 22.1784 44.9619 22.3088 44.4589 22.4319C44.3511 22.4608 44.2576 22.4898 44.157 22.5115C44.0995 22.526 44.042 22.5477 43.9773 22.5622L41.4691 22.736C41.1528 22.7215 40.815 22.678 40.4557 22.6346L40.3048 22.6129C40.1898 22.5984 40.082 22.5912 39.9813 22.5839C39.9382 22.5839 39.8951 22.5839 39.8592 22.5767H39.7729L39.6651 22.555C39.4783 22.555 39.2914 22.5405 39.1045 22.5405C34.778 22.5405 30.5017 24.4013 27.3825 27.638C24.2705 30.8673 22.5528 35.219 22.675 39.5635V39.6938L22.7038 39.8169C22.7325 39.9472 22.7325 40.0776 22.7469 40.2079C22.7541 40.3382 22.7685 40.4758 22.7828 40.6062C22.79 40.7148 22.8116 40.8451 22.826 40.9827C22.8475 41.1709 22.8691 41.3592 22.8763 41.5475L22.6966 44.031C22.6822 44.0962 22.6606 44.1614 22.6391 44.2265L22.5744 44.451C22.4522 45.0085 22.3157 45.4719 22.1647 45.8774C22.0857 46.0947 21.9779 46.3119 21.8773 46.5436C21.6904 46.9491 21.482 47.3545 21.2376 47.7673C21.1226 47.9628 21.0148 48.151 20.8926 48.3248C20.4255 49.0054 20.0302 49.4978 19.5918 49.9322C17.4573 52.0828 14.6256 53.263 11.607 53.263Z" fill="white"/>
</svg>
