<svg width="72" height="84" viewBox="0 0 72 84" fill="none" xmlns="http://www.w3.org/2000/svg">
<path fill-rule="evenodd" clip-rule="evenodd" d="M72 19.6252H37.7545C34.8274 19.6252 32.4394 17.2558 32.4394 14.3516V0H72V19.6252ZM72 83.9986H32.4394V69.6471C32.4394 66.7428 34.8274 64.3735 37.7545 64.3735H72V83.9986ZM22.6006 16.5978L35.4892 29.3858C37.3657 31.2476 39.6475 32.186 42.3002 32.186H52.2176V51.8126H42.3002C39.6475 51.8126 37.3643 52.751 35.4892 54.6129L22.6006 67.4008C20.7255 69.2627 19.7796 71.528 19.7796 74.16V84H0V64.3748H9.91739C12.5701 64.3748 14.8533 63.4364 16.7298 61.5759L29.6184 48.788C31.4935 46.9261 32.4394 44.6607 32.4394 42.0287V41.974C32.4394 39.342 31.4935 37.0766 29.6184 35.2148L16.7298 22.4268C14.8547 20.565 12.5715 19.6279 9.91739 19.6279H0V0H19.7796V9.83994C19.7796 12.472 20.7255 14.7373 22.6006 16.5992V16.5978ZM14.4645 51.8126H0V32.186H14.4645C17.3916 32.186 19.7796 34.5554 19.7796 37.4596V46.539C19.7796 49.4432 17.3916 51.8126 14.4645 51.8126Z" fill="white"/>
</svg>
