<svg width="84" height="84" viewBox="0 0 84 84" fill="none" xmlns="http://www.w3.org/2000/svg">
<path fill-rule="evenodd" clip-rule="evenodd" d="M53.1182 1.46941C67.3895 5.3737 78.6272 16.6132 82.5308 30.887H74.7865C71.3397 20.7118 63.2903 12.6611 53.1168 9.21369V1.46941H53.1182ZM53.1182 74.7863C63.2917 71.3389 71.3411 63.2882 74.7879 53.113H82.5322C78.6286 67.3868 67.3909 78.6263 53.1195 82.5306V74.7863H53.1182ZM1.44898 30.887C3.26539 24.1879 6.82025 17.7719 12.3023 12.289C17.3836 7.20819 23.7629 3.42155 30.8959 1.46941V9.21369C20.6526 12.6843 12.6579 20.7692 9.2289 30.887H1.44898ZM9.2289 53.1116C12.6579 63.2294 20.6526 71.3143 30.8959 74.785V82.5292C15.5494 78.3308 5.2391 66.6262 1.53105 53.1116H9.2289ZM45.7116 7.60355V0.14518C43.3755 -0.0490768 41.0352 -0.0477087 38.7141 0.14518H38.3038V18.4258C28.0933 20.0182 20.0275 28.0853 18.4368 38.2961H0.144125C-0.0624093 40.7695 -0.0446282 43.2497 0.182423 45.7039H18.4368C20.0275 55.916 28.0933 63.9818 38.3038 65.5742V83.8548H38.7141C41.0352 84.0477 43.3755 84.0491 45.7116 83.8548V58.4523H42.0077C27.3957 58.4523 20.0398 40.7038 30.3747 30.3658C39.5389 21.2002 55.163 25.8021 58.038 38.2961H42.0077V45.7039H83.8549V45.2935C84.0477 42.972 84.0491 40.6313 83.8549 38.2948H65.5772C63.9865 28.084 55.9194 20.0168 45.7103 18.4245V7.60355H45.7116Z" fill="white"/>
</svg>
