<svg width="83" height="84" viewBox="0 0 83 84" fill="none" xmlns="http://www.w3.org/2000/svg">
<path d="M38.0076 10.9291C43.228 10.1973 48.4465 10.8561 53.195 12.722C57.9552 14.5938 62.2436 17.6707 65.59 21.7693C66.4516 22.8245 67.2525 23.9567 67.9868 25.1578C68.7035 26.3294 69.3438 27.5602 69.9058 28.8383L65.4373 30.8127C64.9732 29.7555 64.4347 28.7259 63.8258 27.7298C63.2344 26.7614 62.5608 25.8166 61.8128 24.8995C59.0028 21.4577 55.4096 18.8758 51.4287 17.3117C47.4361 15.7417 43.0518 15.1874 38.6695 15.8009L38.0096 10.931L38.0076 10.9291Z" fill="white"/>
<path d="M70.6362 51.6667C69.708 54.213 68.4489 56.6174 66.8981 58.8205C65.3433 61.0296 63.5066 63.0217 61.4329 64.7397C58.3194 67.3195 54.7537 69.2229 50.9588 70.3787C47.1796 71.5306 43.1673 71.9369 39.1492 71.5306L39.6348 66.6371C42.9989 66.9783 46.3669 66.6351 49.5528 65.6627C52.7231 64.6963 55.7112 63.1006 58.3273 60.9329C60.0857 59.4773 61.6248 57.8087 62.9152 55.9783C64.2095 54.142 65.263 52.1263 66.0443 49.9823L70.6362 51.6667Z" fill="white"/>
<path d="M18.7727 60.5523C14.4531 55.2623 12.1503 48.8383 11.9016 42.3294C11.6549 35.8265 13.4623 29.2466 17.3688 23.6371L21.3712 26.4596C18.0894 31.1716 16.5698 36.6943 16.7774 42.146C16.985 47.5917 18.9216 52.9783 22.552 57.4241L18.7727 60.5523Z" fill="white"/>
<path fill-rule="evenodd" clip-rule="evenodd" d="M8.4592 20.9468C9.48918 20.9448 10.3253 21.7831 10.3273 22.8206C10.3292 23.858 9.49702 24.7003 8.46703 24.7022C7.43705 24.7042 6.60092 23.8659 6.59896 22.8285C6.597 21.791 7.42922 20.9488 8.4592 20.9468ZM54.7791 2.71212C55.8091 2.71015 56.6452 3.54841 56.6472 4.58588C56.6492 5.62336 55.8169 6.46556 54.787 6.46754C53.757 6.46951 52.9208 5.63125 52.9189 4.59377C52.9169 3.5563 53.7491 2.71409 54.7791 2.71212ZM12.4695 20.7831C12.7769 21.3926 12.9512 22.0829 12.9512 22.8127C12.9571 25.3097 10.9519 27.3373 8.47291 27.3432C5.9939 27.3492 3.98092 25.3294 3.97505 22.8324C3.96917 20.4083 5.85878 18.4261 8.23793 18.3078C11.8527 12.8462 16.6521 8.41822 22.1721 5.28805C28.164 1.88963 35.0038 0.0158687 42.0982 8.96675e-05C43.9192 -0.0038551 45.7697 0.122377 47.6338 0.374843C49.0496 0.566164 50.4536 0.834408 51.8419 1.17366C52.6271 0.487268 53.6512 0.0710955 54.7733 0.0671507C57.2523 0.0612336 59.2652 2.08095 59.2711 4.57799C59.277 7.07503 57.2718 9.10264 54.7928 9.10856C52.7642 9.1125 51.0469 7.76142 50.4869 5.89949C49.3316 5.62336 48.1665 5.40639 46.9935 5.24663C45.4074 5.03164 43.7743 4.92513 42.108 4.92908C35.8556 4.94288 29.8363 6.58982 24.5689 9.57601C19.7871 12.2861 15.6241 16.0947 12.4675 20.7811L12.4695 20.7831Z" fill="white"/>
<path fill-rule="evenodd" clip-rule="evenodd" d="M45.5563 77.6035C46.5862 77.6016 47.4224 78.4398 47.4243 79.4773C47.4263 80.5148 46.5941 81.357 45.5641 81.359C44.5341 81.3609 43.698 80.5227 43.696 79.4852C43.6941 78.4477 44.5263 77.6055 45.5563 77.6035ZM4.48416 47.0415C5.51415 47.0395 6.35028 47.8777 6.35223 48.9152C6.35419 49.9527 5.52198 50.7949 4.492 50.7969C3.46201 50.7988 2.62589 49.9606 2.62393 48.9231C2.62197 47.8856 3.45418 47.0434 4.48416 47.0415ZM45.5504 74.9586C48.0294 74.9527 50.0424 76.9724 50.0482 79.4694C50.0541 81.9665 48.049 83.9941 45.57 84C44.1072 84.0039 42.807 83.3018 41.9846 82.211C32.9399 82.1657 24.4435 79.1144 17.5724 73.8777C10.9108 68.8008 5.79416 61.6746 3.20745 53.2505C1.35701 52.7002 0.00392916 50.9744 1.28748e-05 48.929C-0.00586156 46.432 1.99928 44.4044 4.47829 44.3985C6.9573 44.3925 8.97027 46.4123 8.97615 48.9093C8.97811 50.0395 8.56885 51.073 7.89134 51.8679C10.1745 59.2604 14.6685 65.5128 20.5096 69.9645C26.4506 74.4911 33.7956 77.1598 41.64 77.2801C42.4056 75.8994 43.8683 74.9645 45.5504 74.9605V74.9586Z" fill="white"/>
<path fill-rule="evenodd" clip-rule="evenodd" d="M67.84 68.4892C68.8699 68.4872 69.7061 69.3254 69.708 70.3629C69.71 71.4004 68.8778 72.2426 67.8478 72.2446C66.8178 72.2465 65.9817 71.4083 65.9797 70.3708C65.9778 69.3333 66.81 68.4911 67.84 68.4892ZM73.8456 17.2446C74.8756 17.2427 75.7117 18.0809 75.7136 19.1184C75.7156 20.1559 74.8834 20.9981 73.8534 21.0001C72.8234 21.002 71.9873 20.1638 71.9853 19.1263C71.9834 18.0888 72.8156 17.2466 73.8456 17.2446ZM67.8341 65.8462C68.0162 65.8462 68.1963 65.856 68.3726 65.8777C71.3705 62.6627 73.734 58.9487 75.3808 54.933C77.1705 50.572 78.1143 45.8501 78.1026 41.0257C78.0947 37.8028 77.662 34.6115 76.8239 31.5346C76.0739 28.7811 75.0107 26.1283 73.6498 23.6371C71.2687 23.5326 69.3673 21.5563 69.3634 19.1302C69.3575 16.6332 71.3627 14.6056 73.8417 14.5997C76.3207 14.5938 78.3336 16.6135 78.3395 19.1105C78.3395 19.8462 78.1692 20.5405 77.8598 21.1539C79.4557 24.0454 80.6913 27.0947 81.545 30.2328C82.4986 33.7318 82.9901 37.357 82.9999 41.0138C83.0117 46.4793 81.9386 51.8422 79.9002 56.8087C78.0673 61.2761 75.4493 65.4182 72.1342 69.0237C72.2634 69.4438 72.3339 69.8915 72.3359 70.355C72.3417 72.8521 70.3366 74.8797 67.8576 74.8856C65.3786 74.8915 63.3656 72.8718 63.3597 70.3747C63.3538 67.8777 65.359 65.8501 67.838 65.8442L67.8341 65.8462Z" fill="white"/>
<path fill-rule="evenodd" clip-rule="evenodd" d="M42.5564 34.1263C45.9303 34.1184 48.6717 36.8679 48.6775 40.2663C48.6854 43.6647 45.9557 46.4261 42.5818 46.432C39.208 46.4379 36.4665 43.6904 36.4607 40.292C36.4548 36.8935 39.1825 34.1322 42.5564 34.1263Z" fill="white"/>
<path fill-rule="evenodd" clip-rule="evenodd" d="M53.4613 28.9133C54.268 28.9133 54.924 29.5681 54.926 30.3807C54.9279 31.1933 54.2759 31.8541 53.4691 31.8561C52.6624 31.858 52.0064 31.2012 52.0044 30.3886C52.0025 29.576 52.6545 28.9152 53.4613 28.9133ZM32.6423 28.144C33.449 28.144 34.105 28.7989 34.107 29.6115C34.1089 30.4241 33.4569 31.0849 32.6501 31.0868C31.8434 31.0888 31.1874 30.432 31.1854 29.6194C31.1835 28.8068 31.8355 28.146 32.6423 28.144ZM53.4554 26.8403C55.3979 26.8363 56.9781 28.4202 56.982 30.3768C56.9859 32.3334 55.4136 33.9251 53.4711 33.929C51.5286 33.933 50.0913 32.4892 49.9543 30.6549C49.7017 30.4655 49.451 30.2939 49.2062 30.1401H49.1965C48.7304 29.8462 48.2291 29.578 47.6965 29.3373C45.7149 28.4419 43.5668 28.0967 41.4618 28.286C39.5957 28.4537 37.7746 29.0356 36.1415 30.0178C35.9437 31.7831 34.4594 33.1559 32.654 33.1598C30.7116 33.1638 29.1313 31.5799 29.1274 29.6233C29.1235 27.6667 30.6959 26.075 32.6384 26.0711C32.8146 26.0711 32.9869 26.0829 33.1553 26.1085C35.5678 24.5425 38.2739 23.6233 41.0329 23.3768C43.9467 23.1145 46.9309 23.5957 49.6958 24.8462C50.4046 25.1657 51.1037 25.5444 51.789 25.9744V25.9784C52.2414 26.2644 52.6702 26.5602 53.0716 26.864C53.1969 26.8502 53.3262 26.8423 53.4554 26.8423V26.8403Z" fill="white"/>
<path fill-rule="evenodd" clip-rule="evenodd" d="M46.1985 54.073C47.0053 54.073 47.6613 54.7278 47.6632 55.5405C47.6652 56.3531 47.0131 57.0138 46.2064 57.0158C45.3996 57.0178 44.7436 56.361 44.7417 55.5484C44.7397 54.7357 45.3918 54.075 46.1985 54.073ZM57.2953 35.8521C58.1021 35.8521 58.7581 36.507 58.76 37.3196C58.762 38.1322 58.1099 38.7929 57.3032 38.7949C56.4964 38.7969 55.8404 38.1401 55.8385 37.3275C55.8365 36.5148 56.4886 35.8541 57.2953 35.8521ZM46.1946 52C46.737 52 47.252 52.1223 47.7122 52.3413C48.9908 51.7633 50.154 50.9783 51.1566 50.0276C52.3373 48.9093 53.3066 47.5444 53.9939 46C54.4541 44.9665 54.7713 43.8916 54.9416 42.8028C55.0826 41.9034 55.1257 40.9862 55.067 40.0632C54.2837 39.4142 53.7824 38.432 53.7805 37.3314C53.7766 35.3748 55.3489 33.7831 57.2914 33.7791C59.2339 33.7752 60.8141 35.359 60.818 37.3156C60.82 38.219 60.4871 39.0434 59.9349 39.6707C60.0211 40.9705 59.9604 42.2742 59.7606 43.5622C59.5198 45.1006 59.0812 46.5977 58.4526 48.0119C57.5107 50.1282 56.1577 52.0237 54.4913 53.6016C53.0207 54.9941 51.3152 56.1282 49.4373 56.9408C48.9008 58.2012 47.6593 59.0848 46.2103 59.0868C44.2678 59.0907 42.6876 57.5069 42.6837 55.5503C42.6797 53.5937 44.2521 52.002 46.1946 51.9981V52Z" fill="white"/>
<path fill-rule="evenodd" clip-rule="evenodd" d="M37.9763 53.8955C38.783 53.8955 39.439 54.5503 39.441 55.3629C39.4429 56.1756 38.7909 56.8363 37.9841 56.8383C37.1774 56.8403 36.5214 56.1835 36.5194 55.3708C36.5175 54.5582 37.1695 53.8975 37.9763 53.8955ZM27.9643 35.4616C28.771 35.4616 29.427 36.1164 29.429 36.929C29.4309 37.7417 28.7789 38.4024 27.9721 38.4044C27.1654 38.4064 26.5094 37.7495 26.5074 36.9369C26.5055 36.1243 27.1575 35.4636 27.9643 35.4616ZM37.9704 51.8245C39.9129 51.8205 41.4931 53.4044 41.497 55.361C41.5009 57.3176 39.9286 58.9093 37.9861 58.9132C36.4078 58.9172 35.0704 57.8738 34.622 56.4339C31.4459 54.791 28.9277 52.2545 27.2926 49.2367C25.6635 46.2288 24.9096 42.7417 25.2464 39.1835C24.749 38.574 24.4494 37.7929 24.4475 36.9428C24.4435 34.9862 26.0159 33.3945 27.9584 33.3906C29.9009 33.3866 31.4811 34.9705 31.485 36.9271C31.487 38.075 30.9465 39.0967 30.1085 39.7476C29.8891 42.2742 30.4335 44.7436 31.5888 46.8777C32.7578 49.0355 34.5476 50.8501 36.8014 52.0296C37.1676 51.8994 37.5612 51.8265 37.9704 51.8265V51.8245Z" fill="white"/>
</svg>
