<svg width="822" height="617" viewBox="0 0 822 617" fill="none" xmlns="http://www.w3.org/2000/svg">
<g style="mix-blend-mode:overlay" clip-path="url(#clip0_718_379)">
<g opacity="0.5">
<path d="M-5.44548 376.445L64.0089 416.549L64.0089 496.734L63.7317 496.896L-5.4455 536.838L-74.8999 496.734L-74.8999 416.549L-74.6226 416.388L-5.44548 376.445ZM62.923 417.173L-5.44548 377.716L-73.814 417.173L-73.814 496.088L-5.4455 535.545L62.923 496.088L62.923 417.173Z" fill="#D0D9DD"/>
</g>
<path opacity="0.5" d="M63.4544 -140.656L63.7317 -140.494L132.909 -100.552L132.909 -20.3671L132.632 -20.2054L63.4544 19.7368L-6 -20.3672L-5.99999 -100.552L-5.72274 -100.714L63.4544 -140.656ZM131.823 -99.9283L63.4544 -139.386L-4.91411 -99.9283L-4.91412 -21.014L63.4544 18.4431L131.823 -21.014L131.823 -99.9283Z" fill="#D0D9DD"/>
<path opacity="0.5" d="M63.4544 98.0045L132.909 138.109L132.909 218.293L132.632 218.455L63.4544 258.397L-6.00003 218.293L-6.00002 138.109L-5.72277 137.947L63.4544 98.0045ZM131.823 138.732L63.4544 99.2751L-4.91414 138.732L-4.91415 217.647L63.4544 257.104L131.823 217.647L131.823 138.732Z" fill="#D0D9DD"/>
<path opacity="0.5" d="M270.177 -21.3373L270.454 -21.1755L339.632 18.7668L339.632 98.9517L339.354 99.1134L270.177 139.056L200.723 98.9516L200.723 18.7668L201 18.605L270.177 -21.3373ZM338.546 19.3905L270.177 -20.0667L201.809 19.3905L201.809 98.3048L270.177 137.762L338.546 98.3048L338.546 19.3905Z" fill="#D0D9DD"/>
<path opacity="0.5" d="M339.1 18.4435L408.555 58.5475L408.555 138.732L408.277 138.894L339.1 178.836L269.646 138.732L269.646 58.5475L269.923 58.3858L339.1 18.4435ZM407.469 59.1712L339.1 19.7141L270.732 59.1712L270.732 138.086L339.1 177.543L407.469 138.086L407.469 59.1712Z" fill="#D0D9DD"/>
<path opacity="0.5" d="M132.377 217.346L201.832 257.45L201.832 337.635L201.555 337.797L132.377 377.739L62.9229 337.635L62.923 257.45L63.2002 257.289L132.377 217.346ZM200.746 258.074L132.377 218.617L64.0089 258.074L64.0089 336.988L132.377 376.446L200.746 336.988L200.746 258.074Z" fill="#D0D9DD"/>
<path opacity="0.5" d="M132.377 58.2238L201.832 98.3278L201.832 178.513L201.555 178.674L132.377 218.617L62.9229 178.513L62.923 98.3278L63.2002 98.1661L132.377 58.2238ZM200.746 98.9515L132.377 59.4943L64.0089 98.9515L64.0089 177.866L132.377 217.323L200.746 177.866L200.746 98.9515Z" fill="#D0D9DD"/>
<path opacity="0.5" d="M339.1 -140.656L339.377 -140.494L408.555 -100.552L408.555 -20.3671L408.277 -20.2054L339.1 19.7368L269.646 -20.3672L269.646 -100.552L269.923 -100.714L339.1 -140.656ZM407.469 -99.9283L339.1 -139.386L270.732 -99.9283L270.732 -21.014L339.1 18.4431L407.469 -21.014L407.469 -99.9283Z" fill="#D0D9DD"/>
<path d="M132.377 -21.6376L132.793 -21.4066L202.109 18.605L202.109 99.1134L201.693 99.3443L132.377 139.356L62.6457 99.1133L62.6457 18.605L63.0616 18.374L132.377 -21.6376ZM200.469 19.5753L132.377 -19.7202L64.2862 19.5753L64.2862 98.1662L132.377 137.462L200.469 98.1662L200.469 19.5753Z" fill="white"/>
<path d="M-5.44544 -101.199L-5.02957 -100.968L64.2862 -60.956L64.2862 19.5523L63.8703 19.7833L-5.44546 59.7949L-75.1771 19.5523L-75.1771 -60.956L-74.7612 -61.1871L-5.44544 -101.199ZM62.6458 -59.9857L-5.44544 -99.2812L-73.5367 -59.9857L-73.5367 18.6051L-5.44546 57.9006L62.6457 18.6052L62.6458 -59.9857Z" fill="white"/>
<path d="M-5.4455 296.584L64.2861 336.827L64.2861 417.335L63.8703 417.566L-5.44552 457.578L-75.1772 417.335L-75.1772 336.827L-74.7613 336.596L-5.4455 296.584ZM62.6457 337.797L-5.4455 298.502L-73.5367 337.797L-73.5367 416.388L-5.44552 455.683L62.6457 416.388L62.6457 337.797Z" fill="white"/>
<path d="M63.4544 -61.4184L63.8703 -61.1874L133.186 -21.1757L133.186 59.3326L132.77 59.5636L63.4544 99.5752L-6.27732 59.3326L-6.27732 -21.1758L-5.86136 -21.4068L63.4544 -61.4184ZM131.546 -20.2055L63.4544 -59.5009L-4.6368 -20.2055L-4.63681 58.3854L63.4544 97.6809L131.546 58.3854L131.546 -20.2055Z" fill="white"/>
<path d="M63.4544 177.242L133.186 217.485L133.186 297.993L132.77 298.224L63.4544 338.236L-6.27732 297.993L-6.27732 217.485L-5.86136 217.254L63.4544 177.242ZM131.546 218.455L63.4544 179.16L-4.6368 218.455L-4.63681 297.046L63.4544 336.342L131.546 297.046L131.546 218.455Z" fill="white"/>
<path d="M408 -101.199L408.416 -100.968L477.732 -60.956L477.732 19.5523L477.316 19.7833L408 59.7949L338.268 19.5523L338.268 -60.956L338.684 -61.1871L408 -101.199ZM476.091 -59.9857L408 -99.2812L339.909 -59.9857L339.909 18.6051L408 57.9006L476.091 18.6052L476.091 -59.9857Z" fill="white"/>
<path d="M408 57.9005L477.732 98.1431L477.732 178.651L477.316 178.882L408 218.894L338.268 178.651L338.268 98.1431L338.684 97.9121L408 57.9005ZM476.091 99.1134L408 59.8179L339.909 99.1134L339.909 177.704L408 217L476.091 177.704L476.091 99.1134Z" fill="white"/>
<path opacity="0.5" d="M65.3952 96.9415L65.3952 99.1592L63.4544 100.268L61.5366 99.1592L61.5366 96.9415L63.4544 95.8095L65.3952 96.9415Z" fill="#D0D9DD"/>
<path opacity="0.5" d="M65.0487 176.595L65.0487 178.443L63.4544 179.367L61.8602 178.443L61.8602 176.595L63.4544 175.671L65.0487 176.595Z" fill="#D0D9DD"/>
<path opacity="0.5" d="M68.1678 254.285L68.1678 259.737L63.4544 262.463L58.7409 259.737L58.7409 254.285L63.4544 251.559L68.1678 254.285Z" fill="#D0D9DD"/>
<path opacity="0.5" d="M68.2603 333.708L68.2603 339.252L63.4544 342.024L58.6716 339.252L58.6716 333.708L63.4544 330.936L68.2603 333.708Z" fill="#D0D9DD"/>
<path opacity="0.5" d="M0.400147 532.819L0.400147 539.564L-5.44548 542.937L-11.2911 539.564L-11.2911 532.819L-5.44548 529.446L0.400147 532.819Z" fill="#D0D9DD"/>
<path opacity="0.5" d="M341.572 96.6182L341.572 99.4827L339.1 100.915L336.605 99.4827L336.605 96.6182L339.1 95.1628L341.572 96.6182Z" fill="#D0D9DD"/>
<path opacity="0.5" d="M483.947 93.9848L483.947 102.093L476.9 106.159L469.876 102.093L469.876 93.9848L476.9 89.942L483.947 93.9848Z" fill="#D0D9DD"/>
<path opacity="0.5" d="M412.991 134.389L412.991 140.165L408 143.052L403.009 140.165L403.009 134.389L408 131.502L412.991 134.389Z" fill="#D0D9DD"/>
<path opacity="0.5" d="M208.07 253.823L208.07 261.654L201.277 265.582L194.484 261.654L194.484 253.823L201.277 249.919L208.07 253.823Z" fill="#D0D9DD"/>
<path d="M346.609 14.2155L346.609 22.9015L339.1 27.2446L331.568 22.9015L331.568 14.2154L339.1 9.87238L346.609 14.2155Z" fill="white"/>
<path d="M343.074 175.232L343.074 179.829L339.1 182.116L335.126 179.829L335.126 175.232L339.1 172.922L343.074 175.232Z" fill="white"/>
<path d="M66.2501 414.354L66.2501 417.566L63.4544 419.183L60.6817 417.566L60.6817 414.354L63.4544 412.76L66.2501 414.354Z" fill="white"/>
<path d="M69.3 492.068L69.3 498.813L63.4544 502.186L57.6319 498.813L57.6319 492.068L63.4544 488.718L69.3 492.068Z" fill="white"/>
<path d="M135.959 55.775L135.959 59.9101L132.377 61.9893L128.796 59.9101L128.796 55.775L132.377 53.719L135.959 55.775Z" fill="white"/>
<path d="M134.757 135.914L134.757 138.663L132.377 140.026L129.998 138.663L129.998 135.914L132.377 134.528L134.757 135.914Z" fill="white"/>
<path d="M135.034 215.175L135.034 218.247L132.377 219.795L129.697 218.247L129.697 215.175L132.377 213.627L135.034 215.175Z" fill="white"/>
<path d="M136.975 293.465L136.975 298.801L132.377 301.458L127.756 298.801L127.756 293.465L132.377 290.808L136.975 293.465Z" fill="white"/>
<path d="M136.398 373.257L136.398 377.878L132.377 380.211L128.357 377.878L128.357 373.257L132.377 370.924L136.398 373.257Z" fill="white"/>
<path d="M481.937 15.6709L481.937 21.4693L476.9 24.3569L471.886 21.4693L471.886 15.6709L476.9 12.7601L481.937 15.6709Z" fill="white"/>
<path d="M411.396 55.8904L411.396 59.8176L408 61.7812L404.604 59.8176L404.604 55.8904L408 53.9268L411.396 55.8904Z" fill="white"/>
<path d="M411.859 214.481L411.859 218.94L408 221.181L404.141 218.94L404.141 214.481L408 212.24L411.859 214.481Z" fill="white"/>
</g>
<defs>
<clipPath id="clip0_718_379">
<rect width="1035" height="1235" fill="white" transform="translate(822 617) rotate(-180)"/>
</clipPath>
</defs>
</svg>
