<svg width="20" height="20" viewBox="0 0 20 20" fill="none" xmlns="http://www.w3.org/2000/svg">
<path d="M11.9127 10.0144C11.9127 11.02 11.0975 11.8352 10.0919 11.8352C9.08637 11.8352 8.27112 11.02 8.27112 10.0144C8.27112 9.00888 9.08637 8.19363 10.0919 8.19363C11.0975 8.19363 11.9127 9.00888 11.9127 10.0144Z" fill="#B95DFE"/>
<path d="M13.1456 4.55202H7.04054C5.71164 4.55202 4.63065 5.63302 4.63065 6.96191V13.067C4.63065 14.3959 5.71164 15.4769 7.04054 15.4769H13.1456C14.4745 15.4769 15.5555 14.3959 15.5555 13.067V6.96191C15.5555 5.63302 14.4745 4.55202 13.1456 4.55202ZM10.0931 13.0268C8.43203 13.0268 7.0807 11.6755 7.0807 10.0144C7.0807 8.3534 8.43203 7.00207 10.0931 7.00207C11.7541 7.00207 13.1054 8.3534 13.1054 10.0144C13.1054 11.6755 11.7541 13.0268 10.0931 13.0268ZM13.5472 7.16273C13.2145 7.16273 12.9448 6.89303 12.9448 6.56026C12.9448 6.22749 13.2145 5.95779 13.5472 5.95779C13.88 5.95779 14.1497 6.22749 14.1497 6.56026C14.1497 6.89303 13.88 7.16273 13.5472 7.16273Z" fill="#B95DFE"/>
<path d="M14.7266 0H5.27344C2.36572 0 0 2.36572 0 5.27344V14.7266C0 17.6343 2.36572 20 5.27344 20H14.7266C17.6343 20 20 17.6343 20 14.7266V5.27344C20 2.36572 17.6343 0 14.7266 0ZM16.4844 12.9688C16.4844 14.9072 14.9072 16.4844 12.9688 16.4844H7.03125C5.09277 16.4844 3.51562 14.9072 3.51562 12.9688V7.03125C3.51562 5.09277 5.09277 3.51562 7.03125 3.51562H12.9688C14.9072 3.51562 16.4844 5.09277 16.4844 7.03125V12.9688Z" fill="#B95DFE"/>
</svg>
