<svg width="28" height="27" viewBox="0 0 28 27" fill="none" xmlns="http://www.w3.org/2000/svg">
<path d="M16.58 13.5191C16.58 14.8766 15.4794 15.9771 14.1219 15.9771C12.7645 15.9771 11.6639 14.8766 11.6639 13.5191C11.6639 12.1616 12.7645 11.061 14.1219 11.061C15.4794 11.061 16.58 12.1616 16.58 13.5191Z" fill="url(#paint0_linear_718_1243)"/>
<path d="M18.2443 6.14453H10.0026C8.20862 6.14453 6.7493 7.60386 6.7493 9.39783V17.6395C6.7493 19.4335 8.20862 20.8928 10.0026 20.8928H18.2443C20.0383 20.8928 21.4976 19.4335 21.4976 17.6395V9.39783C21.4976 7.60386 20.0383 6.14453 18.2443 6.14453ZM14.1234 17.5853C11.8811 17.5853 10.0568 15.761 10.0568 13.5187C10.0568 11.2763 11.8811 9.45205 14.1234 9.45205C16.3658 9.45205 18.1901 11.2763 18.1901 13.5187C18.1901 15.761 16.3658 17.5853 14.1234 17.5853ZM18.7865 9.66894C18.3373 9.66894 17.9732 9.30485 17.9732 8.85561C17.9732 8.40638 18.3373 8.04229 18.7865 8.04229C19.2357 8.04229 19.5998 8.40638 19.5998 8.85561C19.5998 9.30485 19.2357 9.66894 18.7865 9.66894Z" fill="url(#paint1_linear_718_1243)"/>
<path d="M20.3786 0H7.61707C3.69172 0 0.498047 3.19367 0.498047 7.11903V19.8805C0.498047 23.8059 3.69172 26.9996 7.61707 26.9996H20.3786C24.3039 26.9996 27.4976 23.8059 27.4976 19.8805V7.11903C27.4976 3.19367 24.3039 0 20.3786 0ZM22.7516 17.5075C22.7516 20.1244 20.6225 22.2535 18.0056 22.2535H9.99008C7.37318 22.2535 5.24406 20.1244 5.24406 17.5075V9.49203C5.24406 6.87513 7.37318 4.74602 9.99008 4.74602H18.0056C20.6225 4.74602 22.7516 6.87513 22.7516 9.49203V17.5075Z" fill="url(#paint2_linear_718_1243)"/>
<defs>
<linearGradient id="paint0_linear_718_1243" x1="14.1219" y1="11.061" x2="14.1219" y2="15.9771" gradientUnits="userSpaceOnUse">
<stop stop-color="white"/>
<stop offset="1" stop-color="#DAC8FF"/>
</linearGradient>
<linearGradient id="paint1_linear_718_1243" x1="14.1234" y1="6.14453" x2="14.1234" y2="20.8928" gradientUnits="userSpaceOnUse">
<stop stop-color="white"/>
<stop offset="1" stop-color="#DAC8FF"/>
</linearGradient>
<linearGradient id="paint2_linear_718_1243" x1="13.9978" y1="0" x2="13.9978" y2="26.9996" gradientUnits="userSpaceOnUse">
<stop stop-color="white"/>
<stop offset="1" stop-color="#DAC8FF"/>
</linearGradient>
</defs>
</svg>
