<svg width="306" height="80" viewBox="0 0 306 80" fill="none" xmlns="http://www.w3.org/2000/svg">
<path d="M0.109602 19.9071L0 59.9026L34.8626 79.9909L69.8348 60.0838L69.9444 20.0883L35.0727 0L0.109602 19.9071ZM34.9265 57.3836L19.774 48.6488L19.8197 31.2697L35.0179 22.6164L50.1704 31.3512L50.1247 48.7303L34.9265 57.3836ZM30.9991 8.34523L31.2457 18.7473L14.5679 28.2433L14.5405 38.1923L5.32484 38.4098L5.3705 22.9426L30.9991 8.35429V8.34523ZM5.30657 43.629L14.5223 43.4115L14.504 51.657L32.2778 61.9051L32.5336 72.6334L5.27004 56.9034L5.30657 43.6199V43.629ZM37.7945 72.3162L37.5479 61.9141L55.3765 51.7658L55.4039 42.4148L64.6196 42.1973L64.5831 57.0755L37.7945 72.3253V72.3162ZM64.6287 36.9691L55.413 37.1865L55.4404 28.352L36.4792 17.4244L36.2235 6.69612L64.6744 23.0966L64.6378 36.9691H64.6287Z" fill="white"/>
<path d="M130.929 23.151C128.024 21.9006 124.682 21.2753 120.882 21.2753C116.717 21.2753 113.082 22.118 109.958 23.8034C106.835 25.4887 104.414 27.8718 102.697 30.9435C100.98 34.0152 100.122 37.6396 100.122 41.8077C100.122 45.9758 100.98 49.6002 102.697 52.6719C104.414 55.7436 106.835 58.1266 109.958 59.812C113.082 61.4973 116.717 62.34 120.882 62.34C124.682 62.34 128.034 61.7148 130.929 60.4644C133.833 59.214 136.089 57.4199 137.706 55.0731C139.323 52.7353 140.135 49.9717 140.135 46.8003V46.0301H132.993V46.8003C132.993 49.8539 132.007 52.1826 130.025 53.7683C128.043 55.354 125.01 56.1513 120.937 56.1513C117.777 56.1513 115.164 55.6439 113.109 54.6291C111.045 53.6142 109.511 52.0467 108.488 49.9264C107.465 47.8061 106.953 45.0968 106.953 41.7986C106.953 38.5004 107.465 35.7458 108.488 33.6437C109.511 31.5415 111.045 29.983 113.109 28.9682C115.174 27.9533 117.777 27.4459 120.937 27.4459C125.02 27.4459 128.052 28.2433 130.025 29.829C132.007 31.4147 132.993 33.7343 132.993 36.7969V37.5671H140.135V36.7969C140.135 33.5802 139.323 30.8166 137.706 28.4879C136.089 26.1683 133.824 24.3833 130.929 23.1329V23.151Z" fill="white"/>
<path d="M177.884 21.8734L168.468 36.0448L165.161 41.1009H164.686L161.325 36.0448L151.845 21.8734H143.917L161.563 48.0054V61.7601H167.984V48.096L185.867 21.8734H177.884Z" fill="white"/>
<path d="M190.79 21.8734V61.7601H197.266V45.7402H221.871V40.0317H197.266V27.6453H222.766V21.8734H190.79Z" fill="white"/>
<path d="M229.973 21.8734V61.7601H262.132V55.9882H236.448V44.5532H261.237V38.8357H236.448V27.6453H262.132V21.8734H229.973Z" fill="white"/>
<path d="M299.278 50.2707C298.556 49.0022 297.771 47.9148 296.903 47.0268C296.044 46.1298 294.83 45.4865 293.277 45.0878V44.671C295.798 44.5169 297.944 43.9733 299.725 43.0672C301.506 42.152 302.867 40.9016 303.808 39.3159C304.749 37.7302 305.215 35.8274 305.215 33.5984C305.215 31.0975 304.621 28.9772 303.443 27.2285C302.264 25.4797 300.566 24.1568 298.346 23.2416C296.127 22.3264 293.496 21.8734 290.455 21.8734H269.576V61.7601H276.06V46.2838H283.44C285.157 46.2838 286.536 46.4288 287.578 46.7278C288.619 47.0268 289.487 47.498 290.19 48.1595C290.893 48.8119 291.542 49.6817 292.144 50.7509L298.565 61.7601H306.009L299.287 50.2707H299.278ZM290.4 41.3456H276.06V27.6543H290.4C293.076 27.6543 295.104 28.1889 296.465 29.2581C297.826 30.3273 298.501 32.0761 298.501 34.4954C298.501 36.9147 297.816 38.7632 296.465 39.7961C295.104 40.8291 293.085 41.3456 290.4 41.3456Z" fill="white"/>
</svg>
