<svg width="1035" height="900" viewBox="0 0 1035 900" fill="none" xmlns="http://www.w3.org/2000/svg">
<g style="mix-blend-mode:overlay" clip-path="url(#clip0_718_379)">
<path opacity="0.5" d="M689.9 -96.3167L690.177 -96.155L759.354 -56.2127L759.354 23.9722L759.077 24.1339L689.9 64.0762L689.623 63.9144L620.446 23.9722L620.446 -56.2128L620.723 -56.3744L689.9 -96.3167ZM758.269 -55.589L689.9 -95.0462L621.532 -55.589L621.532 23.3254L689.9 62.7825L758.269 23.3254L758.269 -55.589Z" fill="#D0D9DD"/>
<path opacity="0.5" d="M69.7318 -136.097L70.009 -135.936L139.186 -95.9935L139.186 -15.8086L138.909 -15.6468L69.7318 24.2954L69.4544 24.1337L0.277363 -15.8086L0.27737 -95.9935L0.554622 -96.1552L69.7318 -136.097ZM138.1 -95.3697L69.7318 -134.827L1.36331 -95.3697L1.3633 -16.4554L69.7318 23.0017L138.1 -16.4554L138.1 -95.3697Z" fill="#D0D9DD"/>
<path opacity="0.5" d="M69.7318 102.563L70.009 102.725L139.186 142.667L139.186 222.852L138.909 223.014L69.7318 262.956L69.4544 262.794L0.277347 222.852L0.277354 142.667L0.554606 142.505L69.7318 102.563ZM138.1 143.291L69.7318 103.834L1.36329 143.291L1.36328 222.205L69.7318 261.662L138.1 222.205L138.1 143.291Z" fill="#D0D9DD"/>
<path opacity="0.5" d="M69.7317 261.662L70.009 261.824L139.186 301.766L139.186 381.951L138.909 382.113L69.7317 422.055L0.277332 381.951L0.277339 301.766L0.554591 301.605L69.7317 261.662ZM138.1 302.39L69.7317 262.933L1.36328 302.39L1.36327 381.304L69.7317 420.761L138.1 381.304L138.1 302.39Z" fill="#D0D9DD"/>
<path opacity="0.5" d="M69.7317 500.346L139.186 540.45L139.186 620.635L138.909 620.796L69.7317 660.739L0.277301 620.635L0.277308 540.45L0.554561 540.288L69.7317 500.346ZM138.1 541.074L69.7317 501.616L1.36325 541.074L1.36324 619.988L69.7317 659.445L138.1 619.988L138.1 541.074Z" fill="#D0D9DD"/>
<path opacity="0.5" d="M69.7317 579.884L139.186 619.988L139.186 700.173L138.909 700.335L69.7317 740.277L0.277301 700.173L0.277308 619.988L0.554561 619.826L69.7317 579.884ZM138.1 620.612L69.7317 581.155L1.36325 620.612L1.36324 699.526L69.7317 738.983L138.1 699.526L138.1 620.612Z" fill="#D0D9DD"/>
<path opacity="0.5" d="M69.7317 739.006L139.186 779.11L139.186 859.295L138.909 859.457L69.7317 899.376L0.277286 859.272L0.277293 779.087L0.554545 778.926L69.7317 738.983L69.7317 739.006ZM138.1 779.734L69.7317 740.277L1.36323 779.734L1.36322 858.648L69.7317 898.106L138.1 858.648L138.1 779.734Z" fill="#D0D9DD"/>
<path opacity="0.5" d="M138.655 -16.7786L138.932 -16.6169L208.109 23.3254L208.109 103.51L207.832 103.672L138.655 143.614L138.378 143.453L69.2004 103.51L69.2004 23.3254L69.4776 23.1637L138.655 -16.7786ZM207.023 23.9491L138.655 -15.508L70.2863 23.9491L70.2863 102.863L138.655 142.321L207.023 102.863L207.023 23.9491Z" fill="#D0D9DD"/>
<path opacity="0.5" d="M138.655 62.7824L138.932 62.9441L208.109 102.886L208.109 183.071L207.832 183.233L138.655 223.175L138.378 223.014L69.2004 183.071L69.2004 102.886L69.4776 102.725L138.655 62.7824ZM207.023 103.51L138.655 64.053L70.2863 103.51L70.2863 182.424L138.655 221.882L207.023 182.424L207.023 103.51Z" fill="#D0D9DD"/>
<path opacity="0.5" d="M138.655 381.004L208.109 421.108L208.109 501.293L207.832 501.455L138.655 541.397L69.2004 501.293L69.2004 421.108L69.4776 420.946L138.655 381.004ZM207.023 421.732L138.655 382.275L70.2863 421.732L70.2863 500.646L138.655 540.103L207.023 500.646L207.023 421.732Z" fill="#D0D9DD"/>
<path opacity="0.5" d="M138.655 460.566L208.109 500.67L208.109 580.855L207.832 581.016L138.655 620.958L69.2003 580.854L69.2004 500.67L69.4776 500.508L138.655 460.566ZM207.023 501.293L138.655 461.836L70.2863 501.293L70.2863 580.208L138.655 619.665L207.023 580.208L207.023 501.293Z" fill="#D0D9DD"/>
<path opacity="0.5" d="M207.555 -56.536L207.832 -56.3742L277.009 -16.432L277.009 63.753L276.732 63.9146L207.555 103.857L207.277 103.695L138.1 63.753L138.1 -16.432L138.378 -16.5936L207.555 -56.536ZM275.923 -15.8082L207.555 -55.2654L139.186 -15.8082L139.186 63.1061L207.555 102.563L275.923 63.1061L275.923 -15.8082Z" fill="#D0D9DD"/>
<path opacity="0.5" d="M207.555 102.563L207.832 102.725L277.009 142.667L277.009 222.852L276.732 223.014L207.555 262.956L207.277 262.794L138.1 222.852L138.1 142.667L138.378 142.505L207.555 102.563ZM275.923 143.291L207.555 103.834L139.186 143.291L139.186 222.205L207.555 261.662L275.923 222.205L275.923 143.291Z" fill="#D0D9DD"/>
<g opacity="0.5">
<path d="M207.555 659.445L277.009 699.549L277.009 779.734L276.732 779.896L207.555 819.838L138.1 779.734L138.1 699.549L138.377 699.387L207.555 659.445ZM275.923 700.173L207.555 660.716L139.186 700.173L139.186 779.087L207.555 818.544L275.923 779.087L275.923 700.173Z" fill="#D0D9DD"/>
</g>
<path opacity="0.5" d="M276.455 62.7824L276.732 62.9441L345.909 102.886L345.909 183.071L345.632 183.233L276.455 223.175L276.177 223.014L207 183.071L207 102.886L207.277 102.725L276.455 62.7824ZM344.823 103.51L276.455 64.053L208.086 103.51L208.086 182.424L276.455 221.882L344.823 182.424L344.823 103.51Z" fill="#D0D9DD"/>
<path opacity="0.5" d="M276.455 142.344L276.732 142.506L345.909 182.448L345.909 262.633L345.632 262.795L276.455 302.737L207 262.633L207 182.448L207.277 182.286L276.455 142.344ZM344.823 183.072L276.455 143.614L208.086 183.072L208.086 261.986L276.455 301.443L344.823 261.986L344.823 183.072Z" fill="#D0D9DD"/>
<path opacity="0.5" d="M276.455 381.004L345.909 421.108L345.909 501.293L345.632 501.455L276.454 541.397L207 501.293L207 421.108L207.277 420.946L276.455 381.004ZM344.823 421.732L276.455 382.275L208.086 421.732L208.086 500.646L276.454 540.103L344.823 500.646L344.823 421.732Z" fill="#D0D9DD"/>
<path opacity="0.5" d="M483.177 -56.536L483.455 -56.3742L552.632 -16.432L552.632 63.753L552.354 63.9146L483.177 103.857L482.9 103.695L413.723 63.753L413.723 -16.432L414 -16.5936L483.177 -56.536ZM551.546 -15.8082L483.177 -55.2654L414.809 -15.8082L414.809 63.1061L483.177 102.563L551.546 63.1061L551.546 -15.8082Z" fill="#D0D9DD"/>
<path opacity="0.5" d="M483.177 261.662L483.455 261.824L552.632 301.766L552.632 381.951L552.354 382.113L483.177 422.055L413.723 381.951L413.723 301.766L414 301.605L483.177 261.662ZM551.546 302.39L483.177 262.933L414.809 302.39L414.809 381.304L483.177 420.761L551.546 381.304L551.546 302.39Z" fill="#D0D9DD"/>
<path opacity="0.5" d="M552.1 -16.7786L552.378 -16.6169L621.555 23.3254L621.555 103.51L621.277 103.672L552.1 143.614L551.823 143.453L482.646 103.51L482.646 23.3254L482.923 23.1637L552.1 -16.7786ZM620.469 23.9491L552.1 -15.508L483.732 23.9491L483.732 102.863L552.1 142.321L620.469 102.863L620.469 23.9491Z" fill="#D0D9DD"/>
<path opacity="0.5" d="M552.1 62.7824L552.378 62.9441L621.555 102.886L621.555 183.071L621.277 183.233L552.1 223.175L551.823 223.014L482.646 183.071L482.646 102.886L482.923 102.725L552.1 62.7824ZM620.469 103.51L552.1 64.053L483.732 103.51L483.732 182.424L552.1 221.882L620.469 182.424L620.469 103.51Z" fill="#D0D9DD"/>
<path opacity="0.5" d="M552.1 301.443L621.555 341.547L621.555 421.732L621.277 421.894L552.1 461.836L482.646 421.732L482.646 341.547L482.923 341.385L552.1 301.443ZM620.469 342.171L552.1 302.714L483.732 342.171L483.732 421.085L552.1 460.542L620.469 421.085L620.469 342.171Z" fill="#D0D9DD"/>
<path opacity="0.5" d="M621 102.563L621.277 102.725L690.455 142.667L690.455 222.852L690.177 223.014L621 262.956L620.723 262.794L551.546 222.852L551.546 142.667L551.823 142.505L621 102.563ZM689.369 143.291L621 103.834L552.632 143.291L552.632 222.205L621 261.662L689.369 222.205L689.369 143.291Z" fill="#D0D9DD"/>
<path opacity="0.5" d="M758.823 -136.097L759.1 -135.935L828.277 -95.993L828.277 -15.8081L828 -15.6463L758.823 24.2959L758.546 24.1342L689.369 -15.8081L689.369 -95.993L689.646 -96.1547L758.823 -136.097ZM827.192 -95.3692L758.823 -134.826L690.455 -95.3692L690.455 -16.4549L758.823 23.0022L827.192 -16.4549L827.192 -95.3692Z" fill="#D0D9DD"/>
<path opacity="0.5" d="M345.378 -136.097L345.655 -135.935L414.832 -95.993L414.832 -15.8081L414.555 -15.6463L345.378 24.2959L345.1 24.1342L275.923 -15.8081L275.923 -95.993L276.2 -96.1547L345.378 -136.097ZM413.746 -95.3692L345.378 -134.826L277.009 -95.3692L277.009 -16.4549L345.378 23.0022L413.746 -16.4549L413.746 -95.3692Z" fill="#D0D9DD"/>
<path opacity="0.5" d="M345.378 102.563L345.655 102.725L414.832 142.667L414.832 222.852L414.555 223.014L345.377 262.956L345.1 262.794L275.923 222.852L275.923 142.667L276.2 142.505L345.378 102.563ZM413.746 143.291L345.378 103.834L277.009 143.291L277.009 222.205L345.377 261.662L413.746 222.205L413.746 143.291Z" fill="#D0D9DD"/>
<path opacity="0.5" d="M345.377 500.346L414.832 540.45L414.832 620.635L414.555 620.796L345.377 660.739L275.923 620.635L275.923 540.45L276.2 540.288L345.377 500.346ZM413.746 541.074L345.377 501.616L277.009 541.074L277.009 619.988L345.377 659.445L413.746 619.988L413.746 541.074Z" fill="#D0D9DD"/>
<path opacity="0.5" d="M345.377 341.224L414.832 381.328L414.832 461.513L414.555 461.674L345.377 501.617L275.923 461.513L275.923 381.328L276.2 381.166L345.377 341.224ZM413.746 381.952L345.377 342.494L277.009 381.952L277.009 460.866L345.377 500.323L413.746 460.866L413.746 381.952Z" fill="#D0D9DD"/>
<path opacity="0.5" d="M552.1 142.344L552.378 142.506L621.555 182.448L621.555 262.633L621.277 262.795L552.1 302.737L482.646 262.633L482.646 182.448L482.923 182.286L552.1 142.344ZM620.469 183.072L552.1 143.614L483.732 183.072L483.732 261.986L552.1 301.443L620.469 261.986L620.469 183.072Z" fill="#D0D9DD"/>
<path d="M758.823 22.0548L759.239 22.2858L828.555 62.2974L828.555 142.806L828.139 143.037L758.823 183.048L758.407 182.817L689.091 142.806L689.091 62.2974L689.507 62.0664L758.823 22.0548ZM826.914 63.2677L758.823 23.9723L690.732 63.2676L690.732 141.859L758.823 181.154L826.914 141.859L826.914 63.2677Z" fill="white"/>
<path d="M276.455 -17.079L276.87 -16.848L346.186 23.1637L346.186 103.672L345.77 103.903L276.455 143.915L276.039 143.684L206.723 103.672L206.723 23.1636L207.139 22.9326L276.455 -17.079ZM344.546 24.1339L276.455 -15.1615L208.363 24.1339L208.363 102.725L276.455 142.02L344.546 102.725L344.546 24.1339Z" fill="white"/>
<path d="M69.7318 22.7018L70.1477 22.9328L139.463 62.9444L139.463 143.453L139.048 143.684L69.7318 183.695L69.3158 183.464L4.92945e-05 143.453L5.63327e-05 62.9444L0.416011 62.7134L69.7318 22.7018ZM137.823 63.9146L69.7318 24.6192L1.64057 63.9146L1.64057 142.506L69.7318 181.801L137.823 142.506L137.823 63.9146Z" fill="white"/>
<path d="M69.7318 420.462L139.463 460.704L139.463 541.212L139.048 541.443L69.7318 581.455L1.87769e-05 541.212L2.58152e-05 460.704L0.41598 460.473L69.7318 420.462ZM137.823 461.674L69.7318 422.379L1.64054 461.674L1.64054 540.265L69.7318 579.561L137.823 540.265L137.823 461.674Z" fill="white"/>
<path d="M345.378 261.362L345.793 261.593L415.109 301.605L415.109 382.113L414.693 382.344L345.378 422.356L275.646 382.113L275.646 301.605L276.062 301.374L345.378 261.362ZM413.469 302.575L345.378 263.28L277.286 302.575L277.286 381.166L345.378 420.462L413.469 381.166L413.469 302.575Z" fill="white"/>
<path d="M345.378 22.7018L345.793 22.9328L415.109 62.9444L415.109 143.453L414.693 143.684L345.378 183.695L344.962 183.464L275.646 143.453L275.646 62.9444L276.062 62.7134L345.378 22.7018ZM413.469 63.9146L345.378 24.6192L277.286 63.9146L277.286 142.506L345.378 181.801L413.469 142.506L413.469 63.9146Z" fill="white"/>
<path d="M483.177 102.24L483.593 102.471L552.909 142.482L552.909 222.991L552.493 223.222L483.177 263.233L482.761 263.002L413.446 222.991L413.446 142.482L413.862 142.251L483.177 102.24ZM551.268 143.453L483.177 104.157L415.086 143.453L415.086 222.044L483.177 261.339L551.268 222.044L551.268 143.453Z" fill="white"/>
<path d="M138.655 221.582L139.071 221.813L208.386 261.824L208.386 342.333L207.971 342.564L138.655 382.575L68.9231 342.333L68.9231 261.824L69.339 261.593L138.655 221.582ZM206.746 262.795L138.655 223.499L70.5635 262.795L70.5635 341.385L138.655 380.681L206.746 341.385L206.746 262.795Z" fill="white"/>
<path d="M138.655 301.12L208.386 341.362L208.386 421.871L207.971 422.102L138.655 462.113L68.9231 421.871L68.9231 341.362L69.339 341.131L138.655 301.12ZM206.746 342.333L138.655 303.037L70.5635 342.333L70.5635 420.923L138.655 460.219L206.746 420.924L206.746 342.333Z" fill="white"/>
<path d="M207.555 181.801L207.971 182.032L277.286 222.043L277.286 302.552L276.87 302.783L207.555 342.794L137.823 302.552L137.823 222.043L138.239 221.812L207.555 181.801ZM275.646 223.014L207.555 183.718L139.463 223.014L139.463 301.605L207.555 340.9L275.646 301.605L275.646 223.014Z" fill="white"/>
<path d="M207.555 579.584L277.286 619.826L277.286 700.335L276.87 700.566L207.555 740.577L137.823 700.335L137.823 619.826L138.239 619.595L207.555 579.584ZM275.646 620.796L207.555 581.501L139.463 620.796L139.463 699.387L207.555 738.683L275.646 699.387L275.646 620.796Z" fill="white"/>
<path d="M276.455 221.582L276.87 221.813L346.186 261.824L346.186 342.333L345.77 342.564L276.455 382.575L206.723 342.333L206.723 261.824L207.139 261.593L276.455 221.582ZM344.546 262.795L276.455 223.499L208.363 262.795L208.363 341.385L276.455 380.681L344.546 341.385L344.546 262.795Z" fill="white"/>
<path d="M276.455 460.242L346.186 500.484L346.186 580.993L345.77 581.224L276.455 621.235L206.723 580.993L206.723 500.484L207.139 500.253L276.455 460.242ZM344.546 501.455L276.455 462.159L208.363 501.455L208.363 580.046L276.455 619.341L344.546 580.046L344.546 501.455Z" fill="white"/>
<path d="M483.177 -136.421L483.593 -136.19L552.909 -96.1781L552.909 -15.6698L552.493 -15.4388L483.177 24.5727L482.761 24.3418L413.446 -15.6698L413.446 -96.1782L413.862 -96.4092L483.177 -136.421ZM551.268 -95.2079L483.177 -134.503L415.086 -95.2079L415.086 -16.617L483.177 22.6785L551.268 -16.617L551.268 -95.2079Z" fill="white"/>
<path d="M621 -56.8593L621.416 -56.6282L690.732 -16.6166L690.732 63.8917L690.316 64.1227L621 104.134L620.584 103.903L551.268 63.8917L551.268 -16.6166L551.684 -16.8477L621 -56.8593ZM689.091 -15.6463L621 -54.9418L552.909 -15.6463L552.909 62.9445L621 102.24L689.091 62.9445L689.091 -15.6463Z" fill="white"/>
<path d="M621 181.801L621.416 182.032L690.732 222.043L690.732 302.552L690.316 302.783L621 342.794L551.268 302.552L551.268 222.043L551.684 221.812L621 181.801ZM689.091 223.014L621 183.718L552.909 223.014L552.909 301.605L621 340.9L689.091 301.605L689.091 223.014Z" fill="white"/>
<path d="M621 340.9L690.732 381.143L690.732 461.651L690.316 461.882L621 501.894L551.268 461.651L551.268 381.143L551.684 380.912L621 340.9ZM689.091 382.113L621 342.818L552.909 382.113L552.909 460.704L621 500L689.091 460.704L689.091 382.113Z" fill="white"/>
<path opacity="0.5" d="M215.848 65.5993L215.848 68.0019L213.769 69.2031L211.666 68.0019L211.666 65.5993L213.769 64.3749L215.848 65.5993Z" fill="#D0D9DD"/>
<path opacity="0.5" d="M217.581 461.996L217.581 466.408L213.769 468.603L209.933 466.408L209.933 461.996L213.769 459.778L217.581 461.996Z" fill="#D0D9DD"/>
<path opacity="0.5" d="M218.713 779.27L218.713 784.976L213.769 787.841L208.801 784.976L208.801 779.27L213.769 776.406L218.713 779.27Z" fill="#D0D9DD"/>
<path opacity="0.5" d="M221.324 857.237L221.324 865.97L213.769 870.336L206.19 865.97L206.19 857.237L213.769 852.848L221.324 857.237Z" fill="#D0D9DD"/>
<path opacity="0.5" d="M150.715 420.575L150.715 427.344L144.846 430.717L139 427.344L139 420.575L144.846 417.179L150.715 420.575Z" fill="#D0D9DD"/>
<path opacity="0.5" d="M148.219 501.43L148.219 505.311L144.846 507.275L141.496 505.311L141.496 501.43L144.846 499.49L148.219 501.43Z" fill="#D0D9DD"/>
<path opacity="0.5" d="M147.133 581.476L147.133 584.133L144.846 585.45L142.558 584.133L142.558 581.476L144.846 580.16L147.133 581.476Z" fill="#D0D9DD"/>
<path opacity="0.5" d="M149.883 659.328L149.883 665.126L144.846 668.037L139.832 665.126L139.832 659.328L144.846 656.44L149.883 659.328Z" fill="#D0D9DD"/>
<path opacity="0.5" d="M147.179 741.962L147.179 744.642L144.846 745.981L142.535 744.642L142.535 741.962L144.846 740.622L147.179 741.962Z" fill="#D0D9DD"/>
<path opacity="0.5" d="M149.814 819.998L149.814 825.727L144.846 828.569L139.901 825.727L139.901 819.998L144.846 817.134L149.814 819.998Z" fill="#D0D9DD"/>
<path opacity="0.5" d="M147.572 898.936L147.572 902.1L144.846 903.671L142.119 902.1L142.119 898.936L144.846 897.365L147.572 898.936Z" fill="#D0D9DD"/>
<path opacity="0.5" d="M353.509 383.613L353.509 385.831L351.569 386.939L349.651 385.831L349.651 383.613L351.569 382.481L353.509 383.613Z" fill="#D0D9DD"/>
<path opacity="0.5" d="M353.163 463.266L353.163 465.115L351.569 466.039L349.974 465.115L349.974 463.266L351.569 462.342L353.163 463.266Z" fill="#D0D9DD"/>
<path opacity="0.5" d="M356.282 540.956L356.282 546.408L351.569 549.134L346.855 546.408L346.855 540.956L351.569 538.23L356.282 540.956Z" fill="#D0D9DD"/>
<path opacity="0.5" d="M356.374 620.379L356.374 625.924L351.569 628.696L346.786 625.924L346.786 620.379L351.569 617.607L356.374 620.379Z" fill="#D0D9DD"/>
<path opacity="0.5" d="M285.164 25.3799L285.164 28.2444L282.669 29.6768L280.173 28.2444L280.173 25.3799L282.669 23.9245L285.164 25.3799Z" fill="#D0D9DD"/>
<path opacity="0.5" d="M284.332 105.288L284.332 107.205L282.669 108.152L281.005 107.205L281.005 105.288L282.669 104.318L284.332 105.288Z" fill="#D0D9DD"/>
<path opacity="0.5" d="M286.296 263.001L286.296 267.182L282.669 269.284L279.041 267.182L279.041 263.001L282.669 260.898L286.296 263.001Z" fill="#D0D9DD"/>
<path opacity="0.5" d="M284.517 343.463L284.517 345.588L282.669 346.651L280.82 345.588L280.82 343.463L282.669 342.4L284.517 343.463Z" fill="#D0D9DD"/>
<path opacity="0.5" d="M286.227 501.314L286.227 505.426L282.669 507.482L279.111 505.426L279.111 501.314L282.669 499.281L286.227 501.314Z" fill="#D0D9DD"/>
<path opacity="0.5" d="M288.514 819.49L288.514 826.236L282.669 829.608L276.823 826.236L276.823 819.49L282.669 816.117L288.514 819.49Z" fill="#D0D9DD"/>
<path opacity="0.5" d="M632.505 63.728L632.505 69.8498L627.214 72.9224L621.9 69.8498L621.9 63.728L627.214 60.6786L632.505 63.728Z" fill="#D0D9DD"/>
<path opacity="0.5" d="M565.824 182.076L565.824 190.762L558.291 195.105L550.782 190.762L550.782 182.076L558.291 177.733L565.824 182.076Z" fill="#D0D9DD"/>
<path opacity="0.5" d="M496.924 221.418L496.924 230.104L489.392 234.447L481.882 230.104L481.882 221.418L489.392 217.075L496.924 221.418Z" fill="#D0D9DD"/>
<path opacity="0.5" d="M629.687 383.29L629.687 386.154L627.214 387.586L624.719 386.154L624.719 383.29L627.214 381.834L629.687 383.29Z" fill="#D0D9DD"/>
<path opacity="0.5" d="M423.334 25.1721L423.334 28.4525L420.492 30.1157L417.627 28.4525L417.627 25.1721L420.492 23.5088L423.334 25.1721Z" fill="#D0D9DD"/>
<path opacity="0.5" d="M423.472 104.525L423.472 107.967L420.492 109.677L417.511 107.967L417.511 104.525L420.492 102.793L423.472 104.525Z" fill="#D0D9DD"/>
<path opacity="0.5" d="M423.449 183.948L423.449 187.367L420.492 189.076L417.511 187.367L417.511 183.948L420.492 182.238L423.449 183.948Z" fill="#D0D9DD"/>
<path opacity="0.5" d="M424.489 262.793L424.489 267.39L420.492 269.7L416.494 267.39L416.494 262.793L420.492 260.483L424.489 262.793Z" fill="#D0D9DD"/>
<path opacity="0.5" d="M769.173 143.867L769.173 148.672L765.014 151.075L760.878 148.672L760.878 143.867L765.014 141.488L769.173 143.867Z" fill="#D0D9DD"/>
<path opacity="0.5" d="M768.734 223.613L768.734 227.887L765.014 230.035L761.317 227.887L761.317 223.613L765.014 221.488L768.734 223.613Z" fill="#D0D9DD"/>
<path opacity="0.5" d="M772.061 380.656L772.061 388.765L765.014 392.831L757.99 388.765L757.99 380.656L765.014 376.613L772.061 380.656Z" fill="#D0D9DD"/>
<path opacity="0.5" d="M699.765 104.132L699.765 108.337L696.114 110.439L692.464 108.337L692.464 104.132L696.114 102.03L699.765 104.132Z" fill="#D0D9DD"/>
<path opacity="0.5" d="M697.847 264.087L697.847 266.097L696.114 267.09L694.381 266.097L694.381 264.087L696.114 263.093L697.847 264.087Z" fill="#D0D9DD"/>
<path opacity="0.5" d="M701.105 421.061L701.105 426.836L696.114 429.724L691.123 426.836L691.123 421.061L696.114 418.173L701.105 421.061Z" fill="#D0D9DD"/>
<path opacity="0.5" d="M837.565 183.578L837.565 187.76L833.937 189.862L830.31 187.76L830.31 183.578L833.937 181.476L837.565 183.578Z" fill="#D0D9DD"/>
<path opacity="0.5" d="M496.184 540.494L496.184 548.326L489.392 552.253L482.599 548.326L482.599 540.494L489.392 536.59L496.184 540.494Z" fill="#D0D9DD"/>
<path d="M632.159 143.428L632.159 149.134L627.214 151.999L622.27 149.134L622.27 143.428L627.214 140.563L632.159 143.428Z" fill="white"/>
<path d="M494.336 63.8669L494.336 69.573L489.392 72.4375L484.447 69.5729L484.447 63.8669L489.392 61.0024L494.336 63.8669Z" fill="white"/>
<path d="M634.724 300.887L634.724 309.573L627.214 313.916L619.682 309.573L619.682 300.887L627.214 296.544L634.724 300.887Z" fill="white"/>
<path d="M631.188 461.903L631.188 466.501L627.214 468.788L623.24 466.501L623.24 461.903L627.214 459.593L631.188 461.903Z" fill="white"/>
<path d="M767.925 65.1143L767.925 68.464L765.014 70.1504L762.126 68.464L762.126 65.1143L765.014 63.451L767.925 65.1143Z" fill="white"/>
<path d="M221.856 141.603L221.856 150.936L213.769 155.602L205.682 150.936L205.682 141.603L213.769 136.936L221.856 141.603Z" fill="white"/>
<path d="M217.558 223.567L217.558 227.933L213.769 230.127L209.98 227.933L209.98 223.567L213.769 221.372L217.558 223.567Z" fill="white"/>
<path d="M216.172 303.844L216.172 306.639L213.769 308.025L211.343 306.639L211.343 303.844L213.769 302.435L216.172 303.844Z" fill="white"/>
<path d="M217.997 382.273L217.997 387.147L213.769 389.596L209.541 387.147L209.541 382.273L213.769 379.824L217.997 382.273Z" fill="white"/>
<path d="M216.126 542.297L216.126 545.046L213.769 546.432L211.389 545.046L211.389 542.297L213.769 540.934L216.126 542.297Z" fill="white"/>
<path d="M217.997 620.726L217.997 625.6L213.769 628.049L209.517 625.6L209.517 620.726L213.769 618.277L217.997 620.726Z" fill="white"/>
<path d="M217.604 700.425L217.604 704.861L213.769 707.079L209.91 704.861L209.91 700.425L213.769 698.185L217.604 700.425Z" fill="white"/>
<path d="M148.15 24.9176L148.15 28.7063L144.846 30.6006L141.565 28.7063L141.565 24.9176L144.846 23.0233L148.15 24.9176Z" fill="white"/>
<path d="M149.351 103.647L149.351 108.845L144.846 111.433L140.34 108.845L140.34 103.647L144.846 101.037L149.351 103.647Z" fill="white"/>
<path d="M148.543 183.532L148.543 187.806L144.846 189.931L141.149 187.806L141.149 183.532L144.846 181.407L148.543 183.532Z" fill="white"/>
<path d="M147.595 263.509L147.595 266.674L144.846 268.268L142.096 266.674L142.096 263.509L144.846 261.915L147.595 263.509Z" fill="white"/>
<path d="M357.437 63.4048L357.437 70.1736L351.569 73.5464L345.723 70.1736L345.723 63.4048L351.569 60.0321L357.437 63.4048Z" fill="white"/>
<path d="M353.671 145.068L353.671 147.471L351.569 148.672L349.489 147.471L349.489 145.068L351.569 143.867L353.671 145.068Z" fill="white"/>
<path d="M356.883 222.689L356.883 228.811L351.569 231.883L346.278 228.811L346.278 222.689L351.569 219.64L356.883 222.689Z" fill="white"/>
<path d="M354.364 701.026L354.364 704.237L351.569 705.854L348.796 704.237L348.796 701.026L351.569 699.432L354.364 701.026Z" fill="white"/>
<path d="M357.414 778.739L357.414 785.485L351.569 788.857L345.746 785.485L345.746 778.739L351.569 775.389L357.414 778.739Z" fill="white"/>
<path d="M284.586 184.548L284.586 186.789L282.669 187.898L280.751 186.789L280.751 184.548L282.669 183.439L284.586 184.548Z" fill="white"/>
<path d="M287.729 421.037L287.729 426.859L282.669 429.792L277.609 426.859L277.609 421.037L282.669 418.103L287.729 421.037Z" fill="white"/>
<path d="M286.92 580.344L286.92 585.265L282.669 587.737L278.417 585.265L278.417 580.344L282.669 577.896L286.92 580.344Z" fill="white"/>
<path d="M284.864 660.968L284.864 663.509L282.669 664.78L280.474 663.509L280.474 660.968L282.669 659.697L284.864 660.968Z" fill="white"/>
<path d="M285.095 741.915L285.095 744.711L282.669 746.097L280.243 744.711L280.243 741.915L282.669 740.506L285.095 741.915Z" fill="white"/>
<path d="M424.073 342.446L424.073 346.582L420.492 348.661L416.91 346.582L416.91 342.446L420.492 340.39L424.073 342.446Z" fill="white"/>
<path d="M422.871 422.585L422.871 425.334L420.492 426.697L418.112 425.334L418.112 422.585L420.492 421.199L422.871 422.585Z" fill="white"/>
<path d="M423.149 501.846L423.149 504.919L420.492 506.466L417.811 504.919L417.811 501.846L420.492 500.298L423.149 501.846Z" fill="white"/>
<path d="M425.089 580.136L425.089 585.473L420.492 588.129L415.87 585.473L415.87 580.136L420.492 577.48L425.089 580.136Z" fill="white"/>
<path d="M424.512 659.929L424.512 664.549L420.492 666.882L416.471 664.549L416.471 659.929L420.492 657.596L424.512 659.929Z" fill="white"/>
<path d="M770.051 302.342L770.051 308.141L765.014 311.028L760 308.141L760 302.342L765.014 299.431L770.051 302.342Z" fill="white"/>
<path d="M701.752 23.5549L701.752 30.0695L696.114 33.3037L690.5 30.0695L690.5 23.5549L696.114 20.3207L701.752 23.5549Z" fill="white"/>
<path d="M699.511 342.562L699.511 346.489L696.114 348.453L692.718 346.489L692.718 342.562L696.114 340.598L699.511 342.562Z" fill="white"/>
<path d="M699.973 501.153L699.973 505.611L696.114 507.852L692.256 505.611L692.256 501.153L696.114 498.912L699.973 501.153Z" fill="white"/>
<path d="M907.574 143.544L907.574 148.996L902.837 151.745L898.1 148.996L898.1 143.544L902.837 140.818L907.574 143.544Z" fill="white"/>
<path d="M836.617 25.2644L836.617 28.36L833.937 29.9077L831.234 28.36L831.234 25.2644L833.937 23.7166L836.617 25.2644Z" fill="white"/>
</g>
<defs>
<clipPath id="clip0_718_379">
<rect width="1035" height="1235" fill="white" transform="translate(1035 900) rotate(-180)"/>
</clipPath>
</defs>
</svg>
