<svg width="72" height="84" viewBox="0 0 72 84" fill="none" xmlns="http://www.w3.org/2000/svg">
<path d="M35.8307 23.0623H1.07742C0.592644 23.0623 0.161734 22.7337 0.0378458 22.2651C-0.0860421 21.7965 0.118638 21.2955 0.53878 21.0531L35.292 0.907885C35.626 0.713973 36.0354 0.713973 36.3693 0.907885C36.7033 1.1018 36.908 1.4573 36.908 1.83974V21.985C36.908 22.5775 36.4232 23.0623 35.8307 23.0623ZM5.08493 20.9077H34.7534V3.71422L5.08493 20.9077Z" fill="white"/>
<path d="M70.5569 23.0622H35.8306C35.238 23.0622 34.7533 22.5775 34.7533 21.9849V1.85586C34.7533 1.46803 34.9579 1.11252 35.2919 0.923998C35.6259 0.730087 36.0352 0.730087 36.3692 0.923998L71.0955 21.0531C71.5157 21.2955 71.7203 21.7964 71.5965 22.265C71.4672 22.7337 71.0417 23.0622 70.5569 23.0622ZM36.9078 20.9077H66.5494L36.9078 3.72494V20.9077Z" fill="white"/>
<path d="M35.8306 83.4927C35.6474 83.4927 35.4589 83.4443 35.2919 83.3473L0.538643 63.2021C0.204684 63.0081 0 62.6526 0 62.2702C0 61.8878 0.204684 61.5323 0.538643 61.3383L17.926 51.2765C18.1738 51.1311 18.4701 51.0934 18.7448 51.1688C19.0195 51.2442 19.2565 51.4219 19.3965 51.6697L36.7678 81.8714C37.0102 82.2916 36.9401 82.8248 36.5954 83.1696C36.3853 83.3742 36.1106 83.482 35.8359 83.482L35.8306 83.4927ZM3.22648 62.2756L32.8949 79.4691L18.0661 53.6896L3.22648 62.2756Z" fill="white"/>
<path d="M1.07729 63.3473C0.894147 63.3473 0.705622 63.2989 0.538643 63.2019C0.204684 63.008 0 62.6525 0 62.2701V21.9849C0 21.4948 0.328578 21.0692 0.797198 20.9454C1.26582 20.8161 1.76676 21.0262 2.00914 21.4463L19.3965 51.6749C19.6928 52.192 19.515 52.8492 19.0033 53.1454L1.61593 63.2073C1.44895 63.3043 1.26042 63.3527 1.07729 63.3527V63.3473ZM2.15457 26.0194V60.401L16.9942 51.815L2.15457 26.014V26.0194Z" fill="white"/>
<path d="M35.8306 83.4925C35.5505 83.4925 35.2758 83.3847 35.0711 83.18C34.7263 82.8353 34.6563 82.3021 34.8987 81.8819L52.2699 51.6802C52.41 51.4324 52.647 51.2493 52.9217 51.1793C53.1964 51.1039 53.4927 51.1416 53.7404 51.287L71.1224 61.3488C71.4564 61.5427 71.6611 61.8983 71.6611 62.2807C71.6611 62.6631 71.4564 63.0186 71.1224 63.2126L36.3692 83.3578C36.2022 83.4548 36.0137 83.5032 35.8306 83.5032V83.4925ZM53.595 53.684L38.7662 79.4634L68.4346 62.2699L53.595 53.684Z" fill="white"/>
<path d="M70.573 23.0784C70.3899 23.0784 70.2121 23.03 70.0452 22.9384C69.5334 22.6421 69.3503 21.985 69.6412 21.4733V21.4625C69.8889 21.037 70.3845 20.8269 70.8585 20.9508C71.3325 21.0747 71.6611 21.5056 71.6611 21.9904C71.6611 22.3728 71.4564 22.7391 71.1224 22.933C70.9501 23.03 70.7616 23.0838 70.573 23.0838V23.0784Z" fill="white"/>
<path d="M70.5892 63.3474C70.4007 63.3474 70.2175 63.2989 70.0506 63.2019L52.6685 53.1401C52.1568 52.8438 51.9791 52.1867 52.2753 51.6696L69.6466 21.4679C69.7435 21.3009 69.8782 21.1662 70.0398 21.0693C70.3737 20.8754 70.7939 20.8754 71.1225 21.0693C71.4564 21.2632 71.6665 21.6133 71.6665 21.9957V62.2647C71.6665 62.6471 71.4618 63.008 71.1278 63.1965C70.9609 63.2935 70.7777 63.342 70.5892 63.342V63.3474ZM54.6723 51.815L69.5119 60.401V26.0194L54.6723 51.815Z" fill="white"/>
<path d="M70.5784 23.0784C70.2983 23.0784 70.0236 22.9706 69.8136 22.7659C69.4688 22.4212 69.3934 21.8933 69.6358 21.4678V21.457C69.9374 20.94 70.6 20.7676 71.1117 21.0638C71.4456 21.2577 71.6557 21.6133 71.6557 22.0011C71.6557 22.3889 71.451 22.7444 71.1171 22.9383C70.9501 23.0353 70.7616 23.0837 70.573 23.0837L70.5784 23.0784Z" fill="white"/>
<path d="M70.573 23.0731C70.3845 23.0731 70.1906 23.0246 70.0236 22.9222C69.6089 22.6745 69.3988 22.1735 69.5281 21.7049C69.6573 21.2363 70.0721 20.9077 70.5569 20.9077C71.0417 20.9077 71.4779 21.2309 71.6072 21.6995C71.7365 22.1681 71.548 22.6637 71.1332 22.9115L71.1171 22.9222C70.9447 23.0246 70.7562 23.0731 70.5676 23.0731H70.573Z" fill="white"/>
<path d="M35.8305 43.1752C35.642 43.1752 35.4589 43.1267 35.2919 43.0298L0.538627 22.9169C0.118486 22.6745 -0.0861947 22.1735 0.0376932 21.7049C0.161581 21.2363 0.592492 20.9077 1.07727 20.9077H70.5622C70.7508 20.9077 70.9393 20.9562 71.1009 21.0532H71.117C71.451 21.2524 71.6557 21.608 71.6557 21.9958C71.6557 22.3836 71.451 22.7391 71.117 22.9276L36.3746 43.0298C36.2076 43.1267 36.019 43.1752 35.8359 43.1752H35.8305ZM5.08478 23.0623L35.8305 40.8537L66.5709 23.0623H5.08478Z" fill="white"/>
<path d="M35.8305 83.4928C35.4535 83.4928 35.0926 83.2935 34.8987 82.9542L0.145438 22.5238C-0.0969514 22.1036 -0.0269403 21.5704 0.317791 21.2257C0.662523 20.8809 1.19578 20.8109 1.61592 21.0587L36.3692 41.1716C36.7031 41.3655 36.9078 41.721 36.9078 42.1035V82.4209C36.9078 82.9111 36.5793 83.3366 36.1106 83.4605C36.0191 83.4874 35.9275 83.4982 35.8305 83.4982V83.4928ZM4.01289 24.9315L34.7533 78.3811V42.7175L4.01289 24.9261V24.9315Z" fill="white"/>
<path d="M35.8306 83.4926C35.739 83.4926 35.6474 83.4818 35.5504 83.4549C35.0764 83.331 34.7533 82.9001 34.7533 82.4153V42.1625C34.7533 41.7801 34.9579 41.3761 35.2919 41.1822L70.0344 21.08C70.4545 20.8376 70.9878 20.9023 71.3325 21.247C71.6772 21.5918 71.7473 22.125 71.5049 22.5451L36.7624 82.9486C36.5685 83.2879 36.2076 83.4872 35.8306 83.4872V83.4926ZM36.9078 42.7335V78.3809L67.6374 24.9529L36.9078 42.7335Z" fill="white"/>
<path d="M70.573 23.073C70.3899 23.073 70.2067 23.0245 70.0451 22.933H70.0397C69.7058 22.7391 69.5011 22.3836 69.5011 22.0011C69.5011 21.6187 69.7004 21.2632 70.029 21.0693C70.4491 20.8161 70.9931 20.8754 71.3379 21.2201C71.688 21.5594 71.7688 22.0927 71.5318 22.5182C71.3917 22.766 71.1494 22.9599 70.8746 23.0353C70.7777 23.0623 70.6807 23.073 70.5784 23.073H70.573Z" fill="white"/>
<path d="M35.8306 43.1914C35.6474 43.1914 35.4589 43.1429 35.2919 43.0459C34.9579 42.852 34.7533 42.4965 34.7533 42.1141C34.7533 41.7316 34.9579 41.36 35.2919 41.166L70.0344 21.0639C70.3683 20.87 70.7777 20.87 71.1117 21.0639C71.3595 21.2093 71.5426 21.4463 71.618 21.721C71.6934 21.9957 71.6557 22.292 71.5157 22.5398C71.4241 22.7014 71.2786 22.8522 71.1171 22.9438L36.3746 43.0459C36.2076 43.1429 36.0191 43.1914 35.8359 43.1914H35.8306Z" fill="white"/>
</svg>
