<svg width="64" height="64" viewBox="0 0 64 64" fill="none" xmlns="http://www.w3.org/2000/svg">
<path d="M62.9877 39.4024L51.2107 32.2995C50.8855 32.103 50.5128 31.9992 50.1328 31.9992C49.7529 31.9992 49.3801 32.103 49.0549 32.2995L44.704 34.9245L36.64 29.5465L44.8533 24.5919C45.1614 24.4047 45.4163 24.1417 45.5937 23.828C45.7711 23.5143 45.8651 23.1603 45.8667 22.7999V9.20003C45.8659 8.83899 45.7724 8.48421 45.5952 8.16968C45.4179 7.85515 45.1628 7.59142 44.8544 7.40378L33.0773 0.299855C32.7521 0.103369 32.3794 -0.000488281 31.9995 -0.000488281C31.6195 -0.000488281 31.2468 0.103369 30.9216 0.299855L19.1456 7.40378C18.8372 7.59142 18.5821 7.85515 18.4048 8.16968C18.2276 8.48421 18.1341 8.83899 18.1333 9.20003V22.7999C18.1341 23.1609 18.2276 23.5157 18.4048 23.8302C18.5821 24.1448 18.8372 24.4085 19.1456 24.5961L27.3589 29.5507L19.2949 34.9245L14.9429 32.2995C14.6177 32.103 14.245 31.9992 13.8651 31.9992C13.4851 31.9992 13.1124 32.103 12.7872 32.2995L1.0112 39.4034C0.703094 39.5914 0.448343 39.8552 0.271303 40.1697C0.0942624 40.4841 0.000851471 40.8388 0 41.1997L0 54.7995C0.000985035 55.1607 0.094558 55.5155 0.271779 55.8302C0.449 56.1448 0.703948 56.4088 1.01227 56.5969L12.7893 63.6997C13.1147 63.8959 13.4873 63.9995 13.8672 63.9995C14.2471 63.9995 14.6198 63.8959 14.9451 63.6997L26.7221 56.5958C27.0302 56.4079 27.285 56.144 27.462 55.8296C27.6391 55.5151 27.7325 55.1604 27.7333 54.7995V50.1329H36.2667V54.7995C36.2677 55.1607 36.3612 55.5155 36.5384 55.8302C36.7157 56.1448 36.9706 56.4088 37.2789 56.5969L49.056 63.6997C49.3813 63.8959 49.754 63.9995 50.1339 63.9995C50.5137 63.9995 50.8864 63.8959 51.2117 63.6997L62.9888 56.5958C63.2969 56.4079 63.5517 56.144 63.7287 55.8296C63.9057 55.5151 63.9992 55.1604 64 54.7995V41.1997C63.999 40.8385 63.9054 40.4837 63.7282 40.169C63.551 39.8544 63.2961 39.5904 62.9877 39.4024ZM50.1099 34.1267L61.1648 40.7954L50.1205 47.446L39.0987 40.7954L50.1099 34.1267ZM33.0667 29.2414V17.2949C33.0816 17.2863 33.0997 17.2831 33.1147 17.2746L43.7333 10.864L43.7504 22.7689L33.0667 29.2414ZM31.9765 2.12704L43.0315 8.79576L31.9872 15.4474L20.9653 8.79576L31.9765 2.12704ZM20.2496 10.8555L30.8939 17.2799C30.9067 17.2874 30.9205 17.2895 30.9333 17.2959V29.2169L20.2667 22.7999L20.2496 10.8555ZM13.8432 34.1267L24.8981 40.7954L13.8539 47.446L2.832 40.7954L13.8432 34.1267ZM2.13333 54.7995L2.11733 42.853L12.7605 49.2796C12.7733 49.2871 12.7872 49.2892 12.8 49.2967V61.2165L2.13333 54.7995ZM14.9333 61.2411V49.2945C14.9483 49.286 14.9664 49.2839 14.9813 49.2743L25.6 42.8637L25.6171 54.7697L14.9333 61.2411ZM27.7333 47.9996V41.1997C27.7323 40.8385 27.6388 40.4837 27.4616 40.169C27.2843 39.8544 27.0294 39.5904 26.7211 39.4024L21.3152 36.1427L29.3792 30.7689L30.9227 31.7C31.248 31.8962 31.6207 31.9999 32.0005 31.9999C32.3804 31.9999 32.7531 31.8962 33.0784 31.7L34.6208 30.7689L42.6848 36.1427L37.2779 39.4034C36.9698 39.5914 36.715 39.8552 36.538 40.1697C36.3609 40.4841 36.2675 40.8388 36.2667 41.1997V47.9996H27.7333ZM38.4 54.7995L38.384 42.853L49.0272 49.2796C49.04 49.2871 49.0539 49.2892 49.0667 49.2967V61.2165L38.4 54.7995ZM51.2 61.2411V49.2945C51.2149 49.286 51.2331 49.2839 51.248 49.2743L61.8667 42.8637L61.8837 54.7697L51.2 61.2411Z" fill="white"/>
</svg>
