<svg width="515" height="905" viewBox="0 0 515 905" fill="none" xmlns="http://www.w3.org/2000/svg">
<g style="mix-blend-mode:overlay" clip-path="url(#clip0_718_867)">
<path opacity="0.5" d="M311.49 544.528L374.184 580.754L374.184 653.187L373.933 653.333L311.49 689.414L248.795 653.187L248.795 580.754L249.046 580.608L311.49 544.528ZM373.203 581.318L311.49 545.675L249.776 581.318L249.776 652.602L311.49 688.245L373.203 652.602L373.203 581.318Z" fill="#D0D9DD"/>
<path opacity="0.5" d="M498.091 724.2L560.786 760.427L560.786 832.86L560.535 833.006L498.091 869.086L435.397 832.86L435.397 760.427L435.647 760.281L498.091 724.2ZM559.805 760.99L498.091 725.348L436.377 760.99L436.377 832.275L498.091 867.918L559.805 832.275L559.805 760.99Z" fill="#D0D9DD"/>
<path opacity="0.5" d="M498.091 508.593L560.786 544.82L560.786 617.252L560.535 617.398L498.091 653.479L435.397 617.252L435.397 544.82L435.647 544.674L498.091 508.593ZM559.805 545.383L498.091 509.741L436.377 545.383L436.377 616.668L498.091 652.31L559.805 616.668L559.805 545.383Z" fill="#D0D9DD"/>
<path opacity="0.5" d="M498.091 221.158L498.342 221.304L560.786 257.385L560.786 329.818L560.535 329.964L498.091 366.044L435.397 329.817L435.397 257.385L435.647 257.239L498.091 221.158ZM559.805 257.948L498.091 222.306L436.377 257.948L436.377 329.233L498.091 364.876L559.805 329.233L559.805 257.948Z" fill="#D0D9DD"/>
<path opacity="0.5" d="M435.898 760.135L498.592 796.362L498.592 868.773L498.342 868.919L435.898 905L373.204 868.773L373.204 796.341L373.454 796.195L435.898 760.114L435.898 760.135ZM497.612 796.925L435.898 761.283L374.184 796.925L374.184 868.21L435.898 903.852L497.612 868.21L497.612 796.925Z" fill="#D0D9DD"/>
<path opacity="0.5" d="M435.898 616.397L498.592 652.623L498.592 725.056L498.342 725.202L435.898 761.283L373.204 725.056L373.204 652.623L373.454 652.477L435.898 616.397ZM497.612 653.187L435.898 617.544L374.184 653.187L374.184 724.472L435.898 760.114L497.612 724.472L497.612 653.187Z" fill="#D0D9DD"/>
<path opacity="0.5" d="M435.898 472.679L498.592 508.906L498.592 581.339L498.342 581.485L435.898 617.565L373.204 581.339L373.204 508.906L373.454 508.76L435.898 472.679ZM497.612 509.469L435.898 473.827L374.184 509.469L374.184 580.754L435.898 616.397L497.612 580.754L497.612 509.469Z" fill="#D0D9DD"/>
<path opacity="0.5" d="M435.898 400.81L498.592 437.037L498.592 509.469L498.342 509.616L435.898 545.696L373.204 509.469L373.204 437.037L373.454 436.891L435.898 400.81ZM497.612 437.6L435.898 401.958L374.184 437.6L374.184 508.885L435.898 544.528L497.612 508.885L497.612 437.6Z" fill="#D0D9DD"/>
<path opacity="0.5" d="M311.49 400.81L374.184 437.037L374.184 509.469L373.933 509.616L311.49 545.696L248.795 509.469L248.795 437.037L249.046 436.891L311.49 400.81ZM373.203 437.6L311.49 401.958L249.776 437.6L249.776 508.885L311.49 544.528L373.203 508.885L373.203 437.6Z" fill="#D0D9DD"/>
<path opacity="0.5" d="M435.898 185.224L436.148 185.37L498.592 221.45L498.592 293.883L498.342 294.029L435.898 330.11L373.204 293.883L373.204 221.45L373.454 221.304L435.898 185.224ZM497.612 222.014L435.898 186.371L374.184 222.014L374.184 293.299L435.898 328.941L497.612 293.299L497.612 222.014Z" fill="#D0D9DD"/>
<path opacity="0.5" d="M560.306 185.224L560.556 185.37L623 221.43L623 293.862L622.75 294.008L560.306 330.089L497.612 293.862L497.612 221.43L497.862 221.283L560.306 185.203L560.306 185.224ZM621.999 222.014L560.285 186.371L498.571 222.014L498.571 293.299L560.285 328.941L621.999 293.299L621.999 222.014Z" fill="#D0D9DD"/>
<path opacity="0.5" d="M373.704 724.2L436.398 760.427L436.398 832.86L436.148 833.006L373.704 869.086L311.01 832.86L311.01 760.427L311.26 760.281L373.704 724.2ZM435.418 760.99L373.704 725.348L311.99 760.99L311.99 832.275L373.704 867.918L435.418 832.275L435.418 760.99Z" fill="#D0D9DD"/>
<path opacity="0.5" d="M373.704 364.876L436.398 401.102L436.398 473.535L436.148 473.681L373.704 509.762L311.01 473.535L311.01 401.102L311.26 400.956L373.704 364.876ZM435.418 401.666L373.704 366.023L311.99 401.666L311.99 472.951L373.704 508.593L435.418 472.951L435.418 401.666Z" fill="#D0D9DD"/>
<path opacity="0.5" d="M311.49 688.266L374.184 724.492L374.184 796.925L373.933 797.071L311.49 833.152L248.795 796.925L248.795 724.492L249.046 724.346L311.49 688.266ZM373.203 725.056L311.49 689.414L249.776 725.056L249.776 796.341L311.49 831.983L373.203 796.341L373.203 725.056Z" fill="#D0D9DD"/>
<path opacity="0.5" d="M249.296 580.462L311.99 616.689L311.99 689.121L311.74 689.267L249.296 725.348L186.602 689.121L186.602 616.689L186.852 616.543L249.296 580.462ZM311.01 617.252L249.296 581.61L187.582 617.252L187.582 688.537L249.296 724.179L311.01 688.537L311.01 617.252Z" fill="#D0D9DD"/>
<path opacity="0.5" d="M62.6941 688.266L125.388 724.492L125.388 796.925L125.138 797.071L62.6941 833.152L-6.54975e-05 796.925L-5.91653e-05 724.492L0.250208 724.346L62.6941 688.266ZM124.408 725.056L62.6941 689.413L0.980188 725.056L0.980182 796.341L62.6941 831.983L124.408 796.341L124.408 725.056Z" fill="#D0D9DD"/>
<path opacity="0.5" d="M498.091 5.55093L498.342 5.69695L560.786 41.7776L560.786 114.21L560.535 114.356L498.091 150.437L497.841 150.291L435.397 114.21L435.397 41.7776L435.647 41.6315L498.091 5.55093ZM559.805 42.341L498.091 6.69865L436.377 42.341L436.377 113.626L498.091 149.268L559.805 113.626L559.805 42.341Z" fill="#D0D9DD"/>
<path opacity="0.5" d="M435.898 112.958L436.148 113.104L498.592 149.185L498.592 221.617L498.342 221.763L435.898 257.844L435.647 257.698L373.204 221.617L373.204 149.185L373.454 149.039L435.898 112.958ZM497.612 149.748L435.898 114.106L374.184 149.748L374.184 221.033L435.898 256.676L497.612 221.033L497.612 149.748Z" fill="#D0D9DD"/>
<path opacity="0.5" d="M435.898 328.941L498.592 365.168L498.592 437.6L498.342 437.746L435.898 473.827L373.204 437.6L373.204 365.168L373.454 365.022L435.898 328.941ZM497.612 365.731L435.898 330.089L374.184 365.731L374.184 437.016L435.898 472.658L497.612 437.016L497.612 365.731Z" fill="#D0D9DD"/>
<path d="M249.296 437.016L312.24 473.368L312.24 546.093L311.865 546.301L249.296 582.445L186.351 546.093L186.351 473.368L186.727 473.159L249.296 437.016ZM310.76 474.244L249.296 438.748L187.832 474.244L187.832 545.237L249.296 580.733L310.76 545.237L310.76 474.244Z" fill="white"/>
<path d="M498.091 364.584L561.036 400.935L561.036 473.66L560.66 473.869L498.091 510.012L435.147 473.66L435.147 400.935L435.522 400.727L498.091 364.584ZM559.555 401.812L498.091 366.316L436.628 401.812L436.628 472.805L498.091 508.301L559.555 472.805L559.555 401.812Z" fill="white"/>
<path d="M498.091 77.107L498.467 77.3157L561.036 113.459L561.036 186.184L560.66 186.392L498.091 222.536L497.716 222.327L435.147 186.184L435.147 113.459L435.522 113.25L498.091 77.107ZM559.555 114.335L498.091 78.8391L436.628 114.335L436.628 185.328L498.091 220.824L559.555 185.328L559.555 114.335Z" fill="white"/>
<path d="M498.091 580.17L561.036 616.522L561.036 689.247L560.66 689.455L498.091 725.598L435.147 689.247L435.147 616.522L435.522 616.313L498.091 580.17ZM559.555 617.398L498.091 581.902L436.628 617.398L436.628 688.391L498.091 723.887L559.555 688.391L559.555 617.398Z" fill="white"/>
<path d="M435.898 687.974L498.842 724.326L498.842 797.05L498.467 797.259L435.898 833.402L372.953 797.05L372.953 724.326L373.329 724.117L435.898 687.974ZM497.361 725.202L435.898 689.706L374.434 725.202L374.434 796.195L435.898 831.691L497.361 796.195L497.361 725.202Z" fill="white"/>
<path d="M373.704 508.322L436.649 544.674L436.649 617.398L436.273 617.607L373.704 653.75L310.76 617.398L310.76 544.674L311.135 544.465L373.704 508.322ZM435.168 545.55L373.704 510.054L312.24 545.55L312.24 616.543L373.704 652.039L435.168 616.543L435.168 545.55Z" fill="white"/>
<path d="M373.704 292.735L374.08 292.944L436.649 329.087L436.649 401.812L436.273 402.02L373.704 438.164L310.76 401.812L310.76 329.087L311.135 328.878L373.704 292.735ZM435.168 329.964L373.704 294.467L312.24 329.964L312.24 400.956L373.704 436.453L435.168 400.956L435.168 329.964Z" fill="white"/>
<path d="M373.704 148.997L374.08 149.206L436.649 185.349L436.649 258.074L436.273 258.282L373.704 294.426L373.329 294.217L310.76 258.074L310.76 185.349L311.135 185.14L373.704 148.997ZM435.168 186.225L373.704 150.729L312.24 186.225L312.24 257.218L373.704 292.714L435.168 257.218L435.168 186.225Z" fill="white"/>
<path d="M311.49 616.104L374.434 652.456L374.434 725.181L374.059 725.39L311.489 761.533L248.545 725.181L248.545 652.456L248.92 652.248L311.49 616.104ZM372.953 653.333L311.49 617.837L250.026 653.333L250.026 724.326L311.489 759.822L372.953 724.326L372.953 653.333Z" fill="white"/>
<path d="M187.102 687.974L250.047 724.326L250.047 797.05L249.671 797.259L187.102 833.402L124.158 797.05L124.158 724.326L124.533 724.117L187.102 687.974ZM248.566 725.202L187.102 689.706L125.639 725.202L125.639 796.195L187.102 831.691L248.566 796.195L248.566 725.202Z" fill="white"/>
<path d="M124.888 723.908L187.832 760.26L187.832 832.985L187.457 833.193L124.888 869.337L61.9433 832.985L61.9433 760.26L62.3188 760.051L124.888 723.908ZM186.351 761.137L124.888 725.64L63.4242 761.137L63.4242 832.129L124.888 867.626L186.351 832.129L186.351 761.137Z" fill="white"/>
<path opacity="0.5" d="M493.628 7.74211L493.628 2.58773L498.091 0.000129308L502.575 2.58773L502.575 7.74211L498.091 10.3297L493.628 7.74211Z" fill="#D0D9DD"/>
<path opacity="0.5" d="M431.434 835.134L431.434 829.98L435.898 827.413L440.361 829.98L440.361 835.134L435.898 837.722L431.434 835.134Z" fill="#D0D9DD"/>
<path opacity="0.5" d="M434.062 761.825L434.062 759.718L435.898 758.653L437.733 759.718L437.733 761.825L435.898 762.889L434.062 761.825Z" fill="#D0D9DD"/>
<path opacity="0.5" d="M431.247 619.861L431.247 614.477L435.898 611.806L440.549 614.477L440.549 619.861L435.898 622.553L431.247 619.861Z" fill="#D0D9DD"/>
<path opacity="0.5" d="M431.101 548.138L431.101 542.608L435.898 539.853L440.695 542.608L440.695 548.138L435.898 550.913L431.101 548.138Z" fill="#D0D9DD"/>
<path opacity="0.5" d="M491.313 441.231L491.313 433.385L498.091 429.462L504.891 433.385L504.891 441.231L498.091 445.154L491.313 441.231Z" fill="#D0D9DD"/>
<path opacity="0.5" d="M492.502 727.977L492.502 721.508L498.091 718.253L503.702 721.508L503.702 727.977L498.091 731.212L492.502 727.977Z" fill="#D0D9DD"/>
<path opacity="0.5" d="M370.534 870.317L370.534 866.666L373.704 864.85L376.853 866.666L376.853 870.318L373.704 872.133L370.534 870.317Z" fill="#D0D9DD"/>
<path opacity="0.5" d="M307.652 834.779L307.652 830.335L311.489 828.123L315.348 830.335L315.348 834.779L311.489 837.012L307.652 834.779Z" fill="#D0D9DD"/>
<path opacity="0.5" d="M307.756 475.747L307.756 471.427L311.49 469.257L315.244 471.427L315.244 475.747L311.49 477.917L307.756 475.747Z" fill="#D0D9DD"/>
<path opacity="0.5" d="M308.153 403.711L308.153 399.85L311.49 397.93L314.847 399.85L314.847 403.711L311.49 405.652L308.153 403.711Z" fill="#D0D9DD"/>
<path opacity="0.5" d="M305.149 261.851L305.149 254.526L311.49 250.874L317.851 254.526L317.851 261.851L311.49 265.523L305.149 261.851Z" fill="#D0D9DD"/>
<path opacity="0.5" d="M371.952 797.76L371.952 795.736L373.704 794.713L375.456 795.736L375.456 797.76L373.704 798.761L371.952 797.76Z" fill="#D0D9DD"/>
<path opacity="0.5" d="M370.409 511.64L370.409 507.842L373.704 505.943L376.999 507.842L376.999 511.64L373.704 513.56L370.409 511.64Z" fill="#D0D9DD"/>
<path opacity="0.5" d="M372.14 367.15L372.14 365.335L373.704 364.437L375.268 365.335L375.268 367.15L373.704 368.068L372.14 367.15Z" fill="#D0D9DD"/>
<path opacity="0.5" d="M369.178 225.353L369.178 220.136L373.704 217.527L378.209 220.136L378.209 225.353L373.704 227.961L369.178 225.353Z" fill="#D0D9DD"/>
<path opacity="0.5" d="M184.516 762.263L184.516 759.279L187.102 757.777L189.688 759.279L189.688 762.263L187.102 763.766L184.516 762.263Z" fill="#D0D9DD"/>
<path opacity="0.5" d="M182.848 691.438L182.848 686.513L187.102 684.05L191.357 686.513L191.357 691.438L187.102 693.9L182.848 691.438Z" fill="#D0D9DD"/>
<path opacity="0.5" d="M182.472 619.84L182.472 614.498L187.102 611.847L191.711 614.498L191.711 619.84L187.102 622.511L182.472 619.84Z" fill="#D0D9DD"/>
<path opacity="0.5" d="M243.894 799.867L243.894 793.628L249.296 790.498L254.698 793.628L254.698 799.867L249.296 802.977L243.894 799.867Z" fill="#D0D9DD"/>
<path opacity="0.5" d="M244.874 727.56L244.874 722.427L249.296 719.881L253.717 722.427L253.717 727.56L249.296 730.106L244.874 727.56Z" fill="#D0D9DD"/>
<path opacity="0.5" d="M246.021 439.896L246.021 436.098L249.296 434.22L252.57 436.098L252.57 439.896L249.296 441.774L246.021 439.896Z" fill="#D0D9DD"/>
<path opacity="0.5" d="M121.738 870.317L121.738 866.666L124.888 864.85L128.037 866.666L128.037 870.317L124.888 872.133L121.738 870.317Z" fill="#D0D9DD"/>
<path opacity="0.5" d="M57.0211 692.252L57.0211 685.699L62.6941 682.402L68.367 685.699L68.367 692.252L62.6941 695.528L57.0211 692.252Z" fill="#D0D9DD"/>
<path opacity="0.5" d="M118.547 728.666L118.547 721.321L124.888 717.648L131.249 721.321L131.249 728.666L124.888 732.339L118.547 728.666Z" fill="#D0D9DD"/>
<path d="M433.666 259.493L433.666 256.905L435.898 255.59L438.15 256.905L438.15 259.493L435.898 260.786L433.666 259.493Z" fill="white"/>
<path d="M431.434 476.164L431.434 471.01L435.898 468.422L440.361 471.01L440.361 476.164L435.898 478.752L431.434 476.164Z" fill="white"/>
<path d="M369.241 440.23L369.241 435.075L373.704 432.488L378.167 435.075L378.167 440.23L373.704 442.817L369.241 440.23Z" fill="white"/>
<path d="M429.119 333.908L429.119 326.061L435.898 322.138L442.697 326.061L442.697 333.908L435.898 337.831L429.119 333.908Z" fill="white"/>
<path d="M432.31 188.479L432.31 184.326L435.898 182.24L439.485 184.326L439.485 188.479L435.898 190.545L432.31 188.479Z" fill="white"/>
<path d="M308.882 546.886L308.882 543.86L311.49 542.357L314.117 543.86L314.117 546.886L311.49 548.409L308.882 546.886Z" fill="white"/>
<path d="M493.565 871.11L493.565 865.873L498.091 863.243L502.638 865.873L502.638 871.11L498.091 873.74L493.565 871.11Z" fill="white"/>
<path d="M494.879 296.366L494.879 292.631L498.091 290.774L501.324 292.631L501.324 296.366L498.091 298.224L494.879 296.366Z" fill="white"/>
<path d="M308.882 762.284L308.882 759.258L311.49 757.756L314.117 759.258L314.117 762.284L311.49 763.787L308.882 762.284Z" fill="white"/>
<path d="M308.069 690.958L308.069 686.993L311.49 685.01L314.931 686.993L314.931 690.958L311.49 692.919L308.069 690.958Z" fill="white"/>
<path d="M306.964 332.614L306.964 327.376L311.49 324.747L316.036 327.376L316.036 332.614L311.49 335.222L306.964 332.614Z" fill="white"/>
<path d="M367.405 728.624L367.405 721.362L373.704 717.71L380.003 721.362L380.003 728.624L373.704 732.276L367.405 728.624Z" fill="white"/>
<path d="M369.011 655.941L369.011 650.537L373.704 647.824L378.376 650.537L378.376 655.941L373.704 658.654L369.011 655.941Z" fill="white"/>
<path d="M368.615 584.427L368.615 578.563L373.704 575.621L378.772 578.563L378.772 584.427L373.704 587.369L368.615 584.427Z" fill="white"/>
<path d="M370.617 296.283L370.617 292.714L373.704 290.941L376.77 292.714L376.77 296.283L373.704 298.057L370.617 296.283Z" fill="white"/>
<path d="M370.2 153.024L370.2 148.976L373.704 146.973L377.187 148.976L377.187 153.024L373.704 155.028L370.2 153.024Z" fill="white"/>
<path d="M182.639 835.134L182.639 829.98L187.102 827.413L191.566 829.98L191.566 835.134L187.102 837.722L182.639 835.134Z" fill="white"/>
<path d="M184.871 546.656L184.871 544.089L187.102 542.816L189.313 544.089L189.313 546.656L187.102 547.929L184.871 546.656Z" fill="white"/>
<path d="M244.103 656.254L244.103 650.244L249.296 647.239L254.489 650.244L254.489 656.254L249.296 659.238L244.103 656.254Z" fill="white"/>
<path d="M246.877 582.904L246.877 580.086L249.296 578.688L251.715 580.086L251.715 582.904L249.296 584.302L246.877 582.904Z" fill="white"/>
<path d="M59.3571 762.702L59.3571 758.841L62.6941 756.921L66.0311 758.841L66.0311 762.702L62.6941 764.621L59.3571 762.702Z" fill="white"/>
</g>
<defs>
<clipPath id="clip0_718_867">
<rect width="623" height="905" fill="white" transform="translate(623 905) rotate(-180)"/>
</clipPath>
</defs>
</svg>
