<svg width="28" height="27" viewBox="0 0 28 27" fill="none" xmlns="http://www.w3.org/2000/svg">
<path d="M26.2634 1.48521C25.2735 0.495133 24.081 0 22.6866 0H5.81148C4.41708 0 3.2245 0.495133 2.23424 1.48521C1.24416 2.47548 0.749023 3.668 0.749023 5.06246V21.9374C0.749023 23.3317 1.24416 24.5243 2.23424 25.5146C3.2245 26.5049 4.41708 27 5.81148 27H22.6864C24.0808 27 25.2734 26.5049 26.2632 25.5146C27.2535 24.5243 27.7486 23.3318 27.7486 21.9374V5.06246C27.7485 3.668 27.2534 2.47529 26.2634 1.48521ZM21.4032 10.3887C21.415 10.4942 21.421 10.6521 21.421 10.8634C21.421 11.8478 21.2773 12.8352 20.9903 13.8251C20.7033 14.8156 20.2638 15.7648 19.6717 16.6729C19.0803 17.581 18.3743 18.3839 17.554 19.0811C16.7336 19.7781 15.7494 20.335 14.6007 20.7507C13.4526 21.167 12.2219 21.3752 10.9095 21.3752C8.87063 21.3752 6.98393 20.824 5.24949 19.7229C5.53073 19.7579 5.82386 19.7756 6.12837 19.7756C7.82766 19.7756 9.35695 19.2482 10.7164 18.1933C9.91963 18.1819 9.20759 17.936 8.5807 17.455C7.95363 16.9746 7.51723 16.3653 7.27108 15.627C7.57566 15.6738 7.80414 15.697 7.95646 15.697C8.21425 15.697 8.51316 15.6502 8.85289 15.5567C7.99746 15.3923 7.27687 14.9679 6.69092 14.2824C6.10485 13.5968 5.81191 12.8146 5.81191 11.9358V11.9006C6.43283 12.1934 7.01877 12.3457 7.56963 12.3576C6.5032 11.6426 5.97002 10.6173 5.97002 9.28143C5.97002 8.62511 6.13982 8.00407 6.47968 7.41812C7.40536 8.55492 8.53058 9.46299 9.85461 10.1426C11.1788 10.8222 12.5969 11.2033 14.1085 11.2852C14.05 11.0626 14.0206 10.7812 14.0206 10.4415C14.0206 9.4218 14.381 8.55184 15.1018 7.83106C15.8223 7.11034 16.6925 6.74986 17.7119 6.74986C18.7903 6.74986 19.687 7.1367 20.4017 7.91018C21.2103 7.75786 21.9958 7.45888 22.7573 7.01374C22.4644 7.91584 21.9192 8.60147 21.1227 9.07025C21.8841 8.9646 22.5929 8.76549 23.2491 8.47254C22.7569 9.22251 22.1415 9.86116 21.4032 10.3887Z" fill="url(#paint0_linear_718_1241)"/>
<defs>
<linearGradient id="paint0_linear_718_1241" x1="14.2488" y1="0" x2="14.2488" y2="27" gradientUnits="userSpaceOnUse">
<stop stop-color="white"/>
<stop offset="1" stop-color="#DAC8FF"/>
</linearGradient>
</defs>
</svg>
