<svg width="20" height="20" viewBox="0 0 20 20" fill="none" xmlns="http://www.w3.org/2000/svg">
<path d="M18.8998 1.10018C18.1666 0.366771 17.2832 0 16.2503 0H3.75003C2.71712 0 1.83372 0.366771 1.10018 1.10018C0.366771 1.83372 0 2.71708 0 3.75003V16.2502C0 17.283 0.366771 18.1665 1.10018 18.9C1.83372 19.6336 2.71712 20.0003 3.75003 20.0003H16.2502C17.2831 20.0003 18.1665 19.6336 18.8997 18.9C19.6332 18.1665 20 17.2831 20 16.2502V3.75003C20 2.71708 19.6332 1.83358 18.8998 1.10018ZM15.2997 7.69548C15.3084 7.77361 15.3128 7.89059 15.3128 8.04711C15.3128 8.77632 15.2063 9.50767 14.9938 10.241C14.7812 10.9747 14.4556 11.6778 14.0171 12.3505C13.579 13.0231 13.0559 13.618 12.4484 14.1344C11.8406 14.6507 11.1116 15.0632 10.2607 15.3711C9.41021 15.6795 8.49857 15.8337 7.52642 15.8337C6.0161 15.8337 4.61852 15.4254 3.33373 14.6098C3.54206 14.6357 3.7592 14.6488 3.98477 14.6488C5.24352 14.6488 6.37635 14.2582 7.38335 13.4767C6.79315 13.4683 6.26571 13.2861 5.80134 12.9298C5.33683 12.574 5.01357 12.1226 4.83123 11.5757C5.05685 11.6104 5.2261 11.6276 5.33893 11.6276C5.52988 11.6276 5.75131 11.5929 6.00296 11.5236C5.3693 11.4019 4.83552 11.0875 4.40148 10.5797C3.96735 10.0718 3.75035 9.49244 3.75035 8.84145V8.81541C4.21029 9.03227 4.64433 9.1451 5.05238 9.1539C4.26242 8.62427 3.86747 7.86482 3.86747 6.87524C3.86747 6.38907 3.99325 5.92904 4.245 5.495C4.9307 6.33708 5.76421 7.00974 6.74499 7.51319C7.72586 8.0166 8.77632 8.29886 9.89606 8.35957C9.85274 8.19465 9.83098 7.98623 9.83098 7.73457C9.83098 6.97923 10.0979 6.3348 10.6318 5.80088C11.1656 5.26701 11.8102 4.99998 12.5653 4.99998C13.3641 4.99998 14.0283 5.28653 14.5578 5.85949C15.1568 5.74665 15.7386 5.52519 16.3027 5.19545C16.0857 5.86368 15.6818 6.37156 15.0918 6.71881C15.6559 6.64055 16.1809 6.49306 16.667 6.27606C16.3024 6.8316 15.8465 7.30468 15.2997 7.69548Z" fill="#B95DFE"/>
</svg>
